<?xml version="1.0" encoding="UTF-8"?>
<svg xmlns="http://www.w3.org/2000/svg" viewBox="0 0 1220 1561" width="1220" height="1561">
  <rect width="100%" height="100%" fill="#F4E9D2"/>
  
  <!-- Silueta + decoraciones (sol, luna, estrellas, barco, pez) -->
  <g id="silueta-deco" fill="none" stroke="#1F2A12" stroke-width="5" stroke-linecap="round" stroke-linejoin="round">
    <path d="M1039,1537 Q1048,1537 1050,1536 Q1051,1534 1052,1534 Q1054,1534 1054,1534 Q1054,1533 1052,1533 Q1050,1533 1048,1534 Q1047,1536 1045,1536 Q1043,1536 1042,1536 Q1042,1535 1042,1534 Q1042,1534 1042,1534 Q1043,1533 1043,1532 Q1043,1532 1042,1532 Q1042,1532 1042,1532 Q1041,1533 1041,1534 Q1041,1535 1040,1536 Q1040,1536 1040,1536 T1039,1536"/>
    <path d="M937,1525 Q936,1525 936,1526 Q936,1527 936,1528 Q937,1528 937,1532 Q937,1535 936,1536 Q936,1536 936,1536 Q936,1537 936,1538 Q935,1538 935,1541 Q935,1544 934,1544 Q934,1545 934,1546 Q934,1548 934,1548 Q933,1549 933,1552 Q933,1554 934,1554 Q934,1554 934,1552 Q934,1550 934,1550 Q935,1549 935,1548 Q935,1546 936,1546 Q936,1545 936,1542 Q936,1539 936,1538 Q937,1538 937,1538 Q937,1537 938,1536 Q938,1536 938,1532 Q938,1529 939,1528 Q940,1527 940,1526 Q940,1526 940,1526 Q939,1526 938,1526 Q938,1527 938,1526 T937,1526"/>
    <path d="M834,1523 Q833,1523 833,1524 Q833,1525 832,1526 Q832,1526 832,1526 Q832,1527 832,1528 Q831,1528 831,1530 Q831,1531 830,1532 Q829,1533 829,1534 Q829,1536 828,1536 Q828,1537 828,1538 Q828,1538 827,1539 Q826,1540 826,1542 Q826,1545 824,1546 Q823,1548 823,1551 Q823,1554 824,1554 Q824,1554 824,1553 Q824,1552 824,1552 Q825,1551 825,1550 Q825,1550 824,1550 Q824,1549 826,1548 Q827,1546 827,1544 Q827,1541 828,1540 Q829,1539 829,1538 Q829,1538 830,1538 Q830,1537 830,1536 Q830,1534 831,1533 Q832,1532 832,1530 Q832,1529 832,1528 Q833,1528 833,1528 Q833,1527 834,1526 T834,1526"/>
    <path d="M895,1517 Q897,1517 898,1516 Q898,1516 904,1516 Q909,1516 910,1516 Q910,1515 912,1515 Q913,1515 914,1516 Q914,1516 915,1516 Q916,1516 916,1516 Q916,1515 916,1515 Q915,1515 914,1514 Q914,1514 912,1514 Q910,1514 910,1514 Q909,1513 906,1513 Q904,1513 903,1514 Q902,1515 900,1515 Q897,1515 896,1516 Q896,1516 896,1516 T895,1516"/>
    <path d="M1130,1507 Q1124,1507 1124,1508 Q1123,1508 1122,1508 Q1122,1508 1122,1508 Q1121,1509 1120,1509 Q1120,1509 1119,1510 Q1118,1511 1118,1512 Q1118,1512 1118,1512 Q1119,1512 1120,1511 Q1121,1510 1122,1510 Q1122,1510 1122,1510 Q1123,1509 1124,1509 Q1124,1509 1124,1508 Q1125,1508 1127,1508 Q1129,1508 1130,1508 Q1130,1509 1130,1509 Q1131,1509 1132,1510 Q1132,1510 1132,1513 Q1132,1516 1132,1516 Q1131,1517 1131,1518 Q1131,1518 1130,1518 Q1130,1519 1130,1520 Q1130,1520 1130,1520 Q1129,1521 1129,1522 Q1129,1522 1128,1522 Q1128,1523 1128,1524 Q1128,1524 1127,1525 Q1126,1526 1126,1526 Q1126,1527 1126,1527 Q1127,1527 1128,1526 Q1129,1525 1129,1524 Q1129,1524 1130,1524 Q1130,1523 1130,1522 Q1130,1522 1130,1522 Q1131,1521 1131,1520 Q1131,1520 1132,1520 Q1132,1519 1132,1518 Q1132,1518 1132,1518 Q1133,1517 1133,1513 Q1133,1509 1132,1508 Q1132,1508 1132,1508 T1131,1508"/>
    <path d="M1090,1506 Q1088,1506 1088,1506 Q1087,1507 1087,1508 Q1087,1509 1088,1510 Q1088,1510 1088,1511 Q1088,1512 1087,1513 Q1086,1514 1086,1518 Q1086,1521 1085,1522 Q1084,1523 1084,1524 Q1084,1526 1084,1526 Q1083,1527 1083,1528 Q1083,1528 1082,1528 Q1082,1529 1082,1530 Q1082,1531 1082,1532 Q1081,1532 1081,1534 Q1081,1536 1082,1536 Q1082,1536 1082,1534 Q1082,1533 1082,1532 Q1083,1532 1083,1531 Q1083,1530 1084,1530 Q1084,1529 1084,1528 Q1084,1528 1084,1528 Q1085,1527 1085,1526 Q1085,1524 1086,1523 Q1087,1522 1087,1518 Q1087,1515 1088,1514 Q1089,1513 1089,1511 Q1089,1509 1088,1508 Q1088,1508 1088,1508 Q1089,1507 1090,1507 T1090,1507"/>
    <path d="M792,1506 Q791,1506 791,1506 Q791,1507 792,1508 Q792,1508 792,1516 Q792,1524 792,1524 Q791,1525 791,1526 Q791,1526 792,1526 Q792,1527 792,1528 Q791,1528 790,1528 Q790,1528 790,1528 Q789,1529 787,1529 Q785,1529 784,1528 Q784,1528 784,1528 Q783,1528 782,1528 Q782,1527 782,1527 Q781,1527 778,1524 Q776,1522 776,1522 Q776,1521 775,1520 Q774,1519 774,1518 Q774,1518 774,1518 Q773,1517 773,1516 Q773,1516 772,1516 Q772,1515 772,1514 Q772,1514 772,1514 Q771,1513 770,1513 Q770,1513 770,1514 Q770,1514 770,1514 Q771,1515 771,1516 Q771,1516 772,1516 Q772,1517 772,1518 Q772,1518 772,1518 Q773,1519 773,1520 Q773,1520 774,1521 Q775,1522 775,1522 Q775,1523 778,1526 Q780,1528 780,1528 Q781,1528 782,1528 Q782,1529 782,1529 Q783,1529 784,1530 Q784,1530 787,1530 Q790,1530 790,1530 Q791,1529 792,1529 Q792,1529 792,1528 Q793,1528 793,1518 T793,1507"/>
    <path d="M540,1506 Q539,1506 538,1506 Q538,1505 538,1505 Q537,1505 536,1506 Q535,1507 535,1508 Q535,1509 534,1510 Q532,1512 531,1512 Q530,1512 530,1512 Q530,1513 530,1514 Q529,1514 528,1514 Q526,1514 526,1514 Q525,1515 525,1516 Q525,1516 526,1516 Q526,1516 526,1516 Q527,1515 528,1516 Q528,1516 528,1516 Q528,1517 528,1517 Q529,1517 529,1516 Q529,1516 530,1515 Q531,1514 532,1514 Q532,1514 532,1514 Q533,1515 534,1515 Q536,1515 536,1514 Q536,1514 535,1514 Q534,1514 534,1514 Q533,1513 534,1512 Q536,1510 536,1509 Q536,1508 536,1508 Q537,1507 538,1507 T540,1507"/>
    <path d="M835,1506 Q835,1507 836,1508 Q836,1508 837,1508 Q838,1508 838,1508 Q839,1509 838,1510 Q838,1510 838,1511 Q838,1512 838,1512 Q839,1512 839,1512 Q839,1511 840,1510 Q840,1510 842,1510 Q843,1510 844,1510 Q844,1511 850,1511 Q855,1511 856,1512 Q856,1512 857,1512 Q858,1512 858,1512 Q859,1511 860,1511 Q861,1511 862,1512 Q862,1512 863,1512 Q864,1512 864,1512 Q864,1511 864,1511 Q863,1511 862,1510 Q862,1510 861,1510 Q860,1510 860,1510 Q859,1509 859,1508 Q859,1508 858,1508 Q858,1508 858,1509 Q858,1510 858,1510 Q857,1511 856,1510 Q856,1510 850,1510 Q845,1510 844,1510 Q844,1509 843,1509 Q842,1509 842,1508 Q841,1508 841,1508 Q841,1507 842,1506 Q842,1506 842,1504 Q842,1502 842,1502 Q841,1502 841,1504 Q841,1505 840,1506 Q839,1507 838,1507 Q837,1507 836,1506 T836,1506"/>
    <path d="M585,1489 Q582,1489 582,1490 Q581,1490 580,1490 Q579,1490 579,1490 Q579,1491 580,1491 Q580,1491 580,1492 Q581,1492 580,1492 Q580,1493 580,1493 Q579,1493 579,1494 Q579,1495 578,1496 Q577,1497 576,1497 Q575,1497 575,1498 Q575,1498 576,1498 Q578,1498 580,1496 Q582,1494 582,1492 Q582,1491 582,1490 Q583,1490 584,1490 T585,1490"/>
    <path d="M971,1488 Q969,1488 968,1488 Q968,1489 968,1492 Q968,1494 967,1495 Q966,1496 966,1496 Q966,1497 966,1498 Q965,1498 964,1498 Q964,1498 962,1500 Q961,1501 959,1501 Q957,1501 957,1502 Q957,1502 959,1502 Q961,1502 962,1502 Q962,1503 962,1504 Q961,1504 960,1504 Q959,1504 959,1504 Q959,1505 960,1505 Q962,1505 962,1504 Q963,1504 963,1504 Q963,1503 964,1502 Q964,1502 965,1502 Q966,1502 966,1502 Q967,1501 967,1499 Q967,1497 968,1496 Q969,1495 969,1492 Q969,1490 970,1490 Q970,1489 970,1489 T971,1489"/>
    <path d="M796,1465 Q795,1465 794,1466 Q793,1467 793,1468 Q793,1468 792,1468 Q792,1469 792,1470 Q792,1470 791,1471 Q790,1472 790,1472 Q789,1472 788,1472 Q788,1471 786,1471 Q785,1471 784,1470 Q783,1469 782,1469 Q782,1469 782,1470 Q782,1470 783,1471 Q784,1472 786,1472 Q787,1472 788,1472 Q788,1473 788,1474 Q787,1474 787,1475 Q787,1476 785,1478 Q783,1480 783,1481 Q783,1482 782,1483 Q781,1484 781,1484 Q781,1485 780,1486 Q779,1487 779,1488 Q779,1488 778,1489 Q777,1490 777,1492 Q777,1495 778,1496 Q779,1497 780,1497 Q780,1497 780,1498 Q781,1498 782,1498 Q782,1498 783,1499 Q784,1500 785,1500 Q786,1500 788,1502 Q789,1503 790,1503 Q790,1503 790,1502 Q790,1502 788,1500 Q787,1499 786,1499 Q785,1499 784,1498 Q783,1497 782,1497 Q782,1497 782,1496 Q781,1496 780,1496 Q780,1496 779,1495 Q778,1494 778,1492 Q778,1491 779,1490 Q780,1489 780,1488 Q780,1488 781,1487 Q782,1486 782,1486 Q782,1485 783,1484 Q784,1483 784,1482 Q784,1481 786,1479 Q788,1477 788,1476 Q788,1475 789,1474 Q790,1473 792,1473 Q793,1473 794,1474 Q794,1474 795,1474 Q796,1474 796,1474 Q797,1473 800,1473 Q804,1473 804,1472 Q805,1472 808,1472 Q810,1472 810,1472 Q810,1471 807,1471 Q804,1471 804,1472 Q803,1472 800,1472 Q796,1472 796,1472 Q795,1473 794,1472 Q793,1471 793,1470 Q793,1470 794,1470 Q794,1469 794,1468 Q794,1468 795,1467 T796,1466"/>
    <path d="M593,1461 Q592,1461 592,1462 Q591,1462 591,1464 Q591,1466 590,1466 Q590,1467 590,1467 Q589,1467 588,1468 Q588,1468 588,1470 Q588,1471 588,1472 Q587,1472 586,1472 Q586,1472 586,1476 Q586,1480 586,1480 Q587,1480 587,1479 Q587,1478 588,1478 Q588,1477 588,1477 Q589,1477 589,1476 Q589,1476 588,1476 Q588,1475 588,1474 Q589,1474 589,1472 Q589,1469 590,1468 Q590,1468 590,1468 Q591,1468 592,1468 Q592,1467 592,1465 Q592,1463 592,1462 T593,1462"/>
    <path d="M474,1462 Q473,1461 472,1461 Q471,1461 470,1460 Q470,1460 470,1460 Q469,1460 468,1460 Q468,1459 466,1459 Q465,1459 463,1461 Q461,1463 460,1463 Q460,1463 460,1464 Q459,1464 458,1464 Q456,1464 456,1464 Q456,1465 458,1465 Q460,1465 460,1464 Q461,1464 462,1464 Q462,1464 464,1462 Q466,1460 466,1460 Q467,1460 468,1460 Q468,1461 468,1461 Q469,1461 470,1462 Q470,1462 471,1462 Q472,1462 472,1462 Q473,1463 474,1463 T474,1463"/>
    <path d="M864,1178 Q864,1180 864,1180 Q865,1181 865,1182 Q865,1182 866,1182 Q866,1183 866,1183 Q867,1183 872,1187 Q876,1191 877,1191 Q878,1191 879,1192 Q880,1193 882,1194 Q883,1194 884,1196 Q886,1197 888,1197 Q890,1197 890,1198 Q891,1198 891,1201 Q891,1204 892,1204 Q892,1204 892,1201 Q892,1198 892,1198 Q893,1197 894,1198 Q894,1198 896,1198 Q899,1198 900,1198 Q900,1199 904,1199 Q909,1199 910,1200 Q910,1200 916,1200 Q921,1200 922,1200 Q922,1201 922,1202 Q922,1203 922,1204 Q921,1204 921,1204 Q921,1205 922,1205 Q922,1205 922,1204 Q923,1204 923,1202 Q923,1201 924,1200 Q924,1200 926,1200 Q929,1199 930,1198 Q931,1197 935,1197 Q939,1197 940,1198 Q942,1200 942,1200 Q943,1200 943,1200 Q943,1199 942,1198 Q940,1196 941,1195 Q942,1194 942,1194 Q943,1194 944,1192 Q945,1191 946,1191 Q947,1191 948,1190 Q948,1190 948,1190 Q949,1190 952,1188 Q954,1185 954,1185 Q955,1185 956,1183 Q958,1181 960,1181 Q962,1181 962,1180 Q963,1180 966,1182 Q968,1185 968,1185 Q969,1185 969,1184 Q969,1184 967,1182 Q965,1180 965,1179 Q965,1178 966,1176 Q968,1175 970,1174 Q973,1173 974,1172 Q975,1171 976,1171 Q977,1171 978,1172 Q980,1174 981,1174 Q982,1174 982,1174 Q982,1173 982,1173 Q981,1173 980,1172 Q978,1170 978,1170 Q978,1169 980,1166 Q983,1163 984,1163 Q984,1163 987,1160 Q990,1158 990,1158 Q990,1157 992,1156 Q993,1154 994,1152 Q994,1151 996,1150 Q998,1148 998,1148 Q999,1149 1000,1149 Q1001,1149 1006,1155 Q1012,1161 1012,1162 Q1012,1162 1013,1163 Q1014,1164 1014,1164 Q1014,1165 1018,1168 Q1021,1172 1022,1174 Q1022,1175 1023,1176 Q1024,1177 1024,1178 Q1024,1179 1027,1182 Q1030,1185 1030,1186 Q1030,1186 1030,1186 Q1031,1186 1032,1186 Q1032,1185 1039,1185 Q1046,1185 1048,1186 Q1049,1187 1050,1187 Q1051,1187 1052,1186 Q1052,1186 1055,1186 Q1058,1186 1058,1186 Q1059,1185 1061,1185 Q1063,1185 1064,1184 Q1064,1184 1065,1184 Q1066,1184 1066,1184 Q1067,1183 1068,1183 Q1070,1183 1072,1182 Q1073,1181 1074,1181 Q1075,1181 1076,1180 Q1076,1180 1077,1180 Q1078,1180 1078,1180 Q1079,1179 1080,1179 Q1080,1179 1080,1180 Q1081,1180 1081,1180 Q1081,1181 1084,1183 Q1086,1185 1086,1186 Q1087,1188 1089,1190 Q1091,1191 1094,1192 Q1098,1192 1100,1194 Q1101,1195 1102,1195 Q1103,1195 1104,1196 Q1105,1197 1106,1197 Q1106,1197 1106,1198 Q1107,1198 1108,1198 Q1109,1198 1112,1201 Q1115,1204 1114,1204 Q1114,1205 1114,1208 Q1113,1210 1112,1212 Q1110,1214 1110,1214 Q1110,1215 1108,1218 Q1106,1222 1106,1223 Q1106,1224 1106,1224 Q1105,1225 1104,1224 Q1103,1223 1102,1223 Q1102,1223 1102,1224 Q1102,1224 1104,1226 Q1105,1227 1105,1230 Q1105,1234 1104,1234 Q1104,1235 1104,1238 Q1104,1241 1104,1242 Q1105,1242 1105,1243 Q1105,1244 1106,1244 Q1106,1244 1106,1242 Q1106,1241 1106,1240 Q1105,1240 1105,1239 Q1105,1238 1106,1238 Q1106,1237 1108,1238 Q1109,1240 1110,1240 Q1111,1240 1111,1240 Q1111,1239 1110,1239 Q1110,1239 1108,1237 Q1106,1235 1106,1231 Q1106,1227 1106,1226 Q1107,1226 1107,1224 Q1107,1223 1108,1222 Q1108,1222 1110,1218 Q1111,1215 1112,1213 Q1114,1211 1114,1208 Q1115,1206 1118,1203 Q1121,1200 1121,1198 Q1121,1196 1120,1196 Q1120,1196 1120,1198 Q1120,1199 1118,1201 Q1116,1203 1113,1200 Q1110,1197 1109,1197 Q1108,1197 1106,1196 Q1104,1194 1103,1194 Q1102,1194 1100,1192 Q1099,1191 1096,1190 Q1092,1190 1091,1189 Q1090,1188 1090,1188 Q1089,1188 1088,1188 Q1088,1187 1088,1186 Q1087,1184 1084,1182 Q1082,1180 1082,1179 Q1082,1178 1084,1176 Q1085,1175 1086,1175 Q1087,1175 1087,1174 Q1087,1174 1086,1174 Q1084,1174 1082,1176 Q1080,1178 1079,1178 Q1078,1178 1078,1178 Q1077,1179 1076,1179 Q1075,1179 1074,1180 Q1074,1180 1073,1180 Q1072,1180 1070,1181 Q1069,1182 1068,1182 Q1066,1182 1066,1182 Q1065,1183 1064,1183 Q1063,1183 1062,1184 Q1062,1184 1060,1184 Q1058,1184 1058,1184 Q1057,1185 1054,1185 Q1051,1185 1050,1186 Q1050,1186 1050,1186 Q1049,1185 1048,1185 Q1048,1185 1048,1184 Q1047,1184 1048,1182 Q1050,1181 1050,1180 Q1050,1180 1050,1180 Q1049,1180 1047,1182 Q1045,1184 1038,1184 Q1032,1184 1032,1184 Q1031,1183 1030,1183 Q1030,1183 1028,1180 Q1025,1178 1025,1177 Q1025,1176 1024,1175 Q1023,1174 1022,1172 Q1022,1171 1018,1168 Q1015,1164 1015,1164 Q1015,1163 1014,1162 Q1013,1161 1013,1160 Q1013,1160 1010,1156 Q1006,1153 1006,1152 Q1006,1152 1004,1150 Q1002,1148 1001,1148 Q1000,1148 998,1146 Q997,1145 997,1144 Q997,1144 996,1144 Q996,1144 996,1145 Q996,1146 996,1146 Q997,1147 995,1148 Q993,1150 992,1152 Q992,1153 990,1154 Q989,1156 989,1156 Q989,1157 986,1160 Q983,1162 982,1162 Q982,1162 980,1164 Q979,1165 979,1166 Q979,1166 978,1168 Q976,1170 975,1170 Q974,1170 973,1171 Q972,1172 970,1173 Q967,1174 966,1176 Q964,1177 964,1178 Q964,1178 964,1178 Q963,1179 962,1179 Q962,1179 962,1180 Q961,1180 959,1180 Q957,1180 956,1182 Q954,1184 954,1184 Q953,1184 950,1186 Q948,1189 948,1189 Q947,1189 946,1190 Q946,1190 946,1190 Q945,1190 944,1188 Q942,1187 942,1186 Q942,1186 942,1186 Q941,1186 941,1187 Q941,1188 942,1189 Q943,1190 943,1191 Q943,1192 942,1192 Q942,1193 942,1193 Q941,1193 940,1194 Q938,1196 934,1196 Q930,1196 929,1197 Q928,1198 927,1198 Q926,1198 926,1198 Q925,1199 918,1199 Q911,1199 910,1198 Q910,1198 909,1198 Q908,1198 908,1198 Q907,1197 907,1196 Q907,1196 908,1196 Q908,1195 908,1194 Q908,1194 908,1194 Q907,1193 906,1193 Q906,1193 906,1194 Q905,1194 905,1194 Q905,1195 906,1196 Q906,1196 906,1196 Q906,1197 906,1198 Q905,1198 903,1198 Q901,1198 900,1198 Q900,1197 898,1197 Q895,1197 894,1196 Q894,1196 890,1196 Q887,1196 886,1194 Q884,1193 882,1192 Q881,1192 880,1191 Q879,1190 878,1190 Q877,1190 872,1186 Q868,1182 868,1182 Q867,1182 866,1180 Q865,1179 866,1178 Q866,1178 866,1178 Q866,1177 866,1177 T865,1177"/>
    <path d="M61,1139 Q55,1139 54,1140 Q54,1140 54,1140 Q54,1141 54,1142 Q53,1142 52,1142 Q51,1142 50,1142 Q50,1143 50,1143 Q49,1143 49,1144 Q49,1144 50,1144 Q51,1144 52,1144 Q52,1143 52,1143 Q53,1143 54,1144 Q54,1144 54,1145 Q54,1146 54,1146 Q55,1147 55,1152 Q55,1158 54,1158 Q54,1159 54,1160 Q54,1162 52,1164 Q51,1165 48,1165 Q46,1165 46,1164 Q45,1164 44,1164 Q44,1164 44,1164 Q44,1165 44,1166 Q45,1166 48,1166 Q52,1166 54,1164 Q55,1163 55,1162 Q55,1160 56,1160 Q56,1159 56,1152 Q56,1146 56,1146 Q55,1145 55,1143 Q55,1141 56,1140 Q56,1140 58,1140 T61,1140"/>
    <path d="M121,1136 Q120,1137 120,1137 Q119,1137 118,1138 Q118,1138 118,1138 Q117,1138 116,1139 Q115,1140 115,1140 Q115,1141 114,1142 Q114,1142 114,1142 Q114,1143 114,1144 Q113,1144 113,1144 Q113,1145 112,1146 Q112,1146 112,1148 Q112,1151 112,1152 Q113,1152 113,1153 Q113,1154 114,1156 Q116,1157 117,1157 Q118,1157 118,1158 Q119,1158 120,1158 Q121,1158 122,1159 Q123,1160 123,1161 Q123,1162 124,1162 Q124,1163 124,1164 Q124,1166 124,1166 Q125,1166 125,1164 Q125,1162 124,1162 Q124,1161 124,1160 Q124,1159 125,1158 Q126,1157 126,1158 Q127,1158 129,1158 Q131,1158 132,1158 Q132,1157 132,1156 Q132,1156 132,1156 Q131,1156 130,1156 Q130,1157 129,1157 Q128,1157 127,1156 Q126,1155 126,1154 Q126,1153 126,1152 Q125,1152 125,1150 Q125,1147 124,1147 Q124,1147 124,1150 Q124,1153 124,1154 Q125,1154 125,1155 Q125,1156 124,1157 Q123,1158 122,1158 Q122,1157 121,1157 Q120,1157 120,1156 Q119,1156 118,1156 Q117,1156 116,1154 Q114,1153 114,1152 Q114,1151 114,1150 Q113,1150 113,1148 Q113,1147 114,1146 Q114,1146 114,1146 Q114,1145 114,1144 Q115,1144 115,1144 Q115,1143 116,1142 Q116,1142 116,1142 Q116,1141 117,1140 Q118,1139 118,1139 Q119,1139 120,1138 Q120,1138 120,1138 Q121,1138 122,1138 Q122,1137 124,1137 Q125,1137 125,1136 T125,1136"/>
    <path d="M94,1135 Q93,1135 92,1136 Q92,1136 91,1136 Q90,1136 89,1137 Q88,1138 88,1138 Q88,1139 88,1140 Q87,1140 84,1140 Q81,1140 81,1140 Q81,1141 84,1141 Q87,1141 88,1142 Q88,1142 88,1144 Q88,1146 88,1146 Q89,1147 89,1149 Q89,1151 90,1152 Q90,1152 90,1154 Q90,1156 90,1156 Q89,1157 89,1162 Q89,1168 90,1168 Q90,1169 91,1169 Q92,1169 92,1168 Q92,1168 92,1168 Q91,1168 90,1168 Q90,1167 90,1162 Q90,1158 90,1158 Q91,1157 91,1154 Q91,1151 90,1150 Q90,1150 90,1148 Q90,1146 90,1146 Q89,1145 89,1142 Q89,1139 90,1138 Q91,1137 92,1137 Q93,1137 94,1136 T94,1136"/>
    <path d="M767,1134 Q767,1135 768,1136 Q768,1136 771,1136 Q774,1136 775,1137 Q776,1138 777,1138 Q778,1138 779,1139 Q780,1140 780,1140 Q781,1140 784,1143 Q787,1146 787,1146 Q787,1147 790,1150 Q792,1152 792,1152 Q792,1153 792,1154 Q793,1154 793,1154 Q793,1155 794,1156 Q795,1157 795,1158 Q795,1158 796,1159 Q797,1160 797,1160 Q797,1161 798,1162 Q798,1162 798,1162 Q798,1163 798,1164 Q799,1164 800,1164 Q800,1164 801,1165 Q802,1166 803,1166 Q804,1166 806,1168 Q807,1169 808,1169 Q808,1169 809,1170 Q810,1171 812,1171 Q814,1171 814,1172 Q815,1172 816,1172 Q816,1172 818,1174 Q819,1175 822,1175 Q824,1175 824,1176 Q825,1176 826,1176 Q827,1176 828,1176 Q828,1177 828,1177 Q829,1177 830,1178 Q830,1178 831,1178 Q832,1178 832,1178 Q833,1179 834,1179 Q836,1179 836,1180 Q837,1180 842,1180 Q847,1180 847,1180 Q847,1179 842,1179 Q838,1179 838,1178 Q837,1178 836,1178 Q834,1178 834,1178 Q833,1177 832,1177 Q831,1177 830,1176 Q830,1176 830,1176 Q829,1176 828,1176 Q828,1175 827,1175 Q826,1175 826,1174 Q825,1174 822,1174 Q820,1174 818,1172 Q817,1171 816,1171 Q816,1171 816,1170 Q815,1170 813,1170 Q811,1170 810,1169 Q809,1168 808,1168 Q808,1168 806,1166 Q805,1165 804,1165 Q803,1165 802,1164 Q801,1163 800,1163 Q800,1163 800,1162 Q799,1162 799,1162 Q799,1161 798,1160 Q798,1160 798,1160 Q798,1159 797,1158 Q796,1157 796,1156 Q796,1156 795,1155 Q794,1154 794,1154 Q794,1153 794,1152 Q793,1152 793,1152 Q793,1151 790,1148 Q788,1146 788,1145 Q788,1144 790,1142 Q791,1141 791,1140 Q791,1140 790,1140 Q790,1140 788,1142 Q787,1143 786,1143 Q786,1143 784,1141 Q782,1139 782,1139 Q781,1139 780,1138 Q779,1137 778,1137 Q777,1137 776,1136 Q775,1135 772,1135 Q769,1135 768,1134 T768,1134"/>
    <path d="M241,1130 Q238,1130 238,1130 Q237,1129 236,1129 Q235,1129 235,1130 Q235,1130 236,1130 Q236,1130 236,1130 Q237,1131 238,1131 Q240,1131 241,1132 Q242,1133 242,1133 Q243,1133 244,1134 Q244,1134 244,1136 Q244,1138 244,1138 Q243,1139 242,1139 Q242,1139 240,1141 Q238,1143 238,1144 Q238,1144 238,1144 Q239,1144 240,1144 Q240,1145 240,1146 Q240,1146 240,1146 Q241,1147 241,1148 Q241,1150 242,1150 Q242,1151 242,1152 Q241,1152 241,1154 Q241,1157 240,1158 Q240,1158 238,1158 Q237,1158 236,1158 Q236,1159 234,1159 Q233,1159 232,1160 Q232,1160 232,1160 Q231,1160 231,1160 Q231,1161 232,1161 Q233,1161 234,1160 Q234,1160 236,1160 Q237,1160 238,1160 Q238,1159 238,1160 Q239,1160 240,1160 Q240,1160 241,1159 Q242,1158 242,1156 Q242,1153 242,1152 Q243,1152 243,1151 Q243,1150 242,1150 Q242,1149 242,1148 Q242,1146 242,1146 Q241,1145 241,1144 Q241,1142 242,1141 Q243,1140 244,1140 Q244,1140 244,1140 Q245,1139 245,1136 Q245,1133 244,1132 Q244,1132 244,1132 T243,1132"/>
    <path d="M212,1129 Q212,1132 212,1132 Q211,1133 211,1136 Q211,1138 210,1138 Q210,1139 210,1140 Q210,1142 210,1142 Q211,1143 210,1144 Q210,1144 210,1144 Q209,1144 208,1144 Q208,1145 208,1145 Q207,1145 206,1146 Q205,1147 205,1148 Q205,1148 206,1148 Q206,1148 207,1147 Q208,1146 208,1146 Q209,1146 210,1146 Q210,1145 210,1145 Q211,1145 212,1144 Q212,1144 214,1144 Q217,1144 218,1145 Q219,1146 218,1146 Q218,1147 218,1152 Q218,1158 218,1158 Q219,1159 219,1160 Q219,1161 220,1161 Q220,1161 220,1160 Q220,1158 220,1158 Q219,1157 219,1152 Q219,1148 220,1148 Q220,1147 220,1146 Q220,1145 220,1144 Q219,1144 219,1144 Q219,1143 220,1142 Q221,1141 221,1140 Q221,1140 222,1140 Q222,1139 222,1138 Q222,1137 222,1137 Q221,1137 221,1138 Q221,1138 220,1138 Q220,1139 220,1140 Q220,1140 218,1142 Q217,1143 215,1143 Q213,1143 212,1142 Q211,1141 211,1140 Q211,1140 212,1140 Q212,1139 212,1136 Q212,1134 213,1133 Q214,1132 214,1132 Q214,1131 214,1130 Q213,1130 213,1130 T213,1129"/>
    <path d="M624,1118 Q624,1119 624,1119 Q625,1119 626,1118 Q627,1117 629,1117 Q631,1117 632,1118 Q632,1118 636,1118 Q641,1118 642,1118 Q642,1119 642,1119 Q643,1119 644,1120 Q644,1120 645,1120 Q646,1120 646,1120 Q647,1121 648,1121 Q648,1121 648,1122 Q649,1122 651,1122 Q653,1122 654,1122 Q654,1123 654,1124 Q654,1124 655,1125 Q656,1126 656,1126 Q657,1126 658,1128 Q660,1129 660,1129 Q661,1129 662,1130 Q663,1131 664,1131 Q665,1131 666,1132 Q666,1132 666,1132 Q667,1132 669,1134 Q671,1136 674,1136 Q676,1136 676,1136 Q677,1137 678,1137 Q678,1137 678,1138 Q679,1138 681,1138 Q683,1138 684,1138 Q684,1139 684,1139 Q685,1139 686,1140 Q686,1140 687,1140 Q688,1140 688,1140 Q689,1141 690,1141 Q691,1141 692,1142 Q692,1142 694,1142 Q695,1142 696,1142 Q696,1143 698,1143 Q699,1143 700,1144 Q700,1144 702,1144 Q705,1144 706,1144 Q706,1145 720,1145 Q735,1145 736,1144 Q736,1144 736,1144 Q737,1144 738,1144 Q738,1143 739,1143 Q740,1143 740,1142 Q741,1142 742,1142 Q743,1142 744,1140 Q746,1139 746,1138 Q746,1138 746,1138 Q747,1137 748,1137 Q750,1137 751,1136 Q752,1135 753,1135 Q754,1135 754,1134 Q755,1134 755,1133 Q755,1132 754,1132 Q754,1131 754,1130 Q754,1130 754,1130 Q753,1130 753,1131 Q753,1132 754,1132 Q754,1133 754,1134 Q753,1134 752,1134 Q751,1134 750,1135 Q749,1136 748,1136 Q746,1136 746,1136 Q745,1137 745,1138 Q745,1138 744,1140 Q742,1141 741,1141 Q740,1141 740,1142 Q739,1142 738,1142 Q737,1142 736,1142 Q736,1143 736,1143 Q735,1143 734,1144 Q734,1144 720,1144 Q707,1144 706,1144 Q706,1143 704,1143 Q701,1143 700,1142 Q700,1142 698,1142 Q697,1142 696,1142 Q696,1141 694,1141 Q693,1141 692,1140 Q692,1140 691,1140 Q690,1140 690,1140 Q689,1139 688,1139 Q687,1139 686,1138 Q686,1138 686,1138 Q685,1138 684,1138 Q684,1137 682,1137 Q680,1137 680,1136 Q679,1136 678,1136 Q678,1136 678,1136 Q677,1135 674,1135 Q672,1135 670,1133 Q668,1131 668,1131 Q667,1131 666,1130 Q666,1130 665,1130 Q664,1130 664,1130 Q663,1129 664,1128 Q666,1126 666,1124 Q666,1123 666,1123 Q665,1123 665,1124 Q665,1125 664,1126 Q662,1128 662,1128 Q661,1128 660,1126 Q658,1125 658,1125 Q657,1125 656,1124 Q655,1123 655,1122 Q655,1122 654,1122 Q654,1121 652,1121 Q650,1121 650,1120 Q649,1120 648,1120 Q648,1120 648,1120 Q647,1119 646,1119 Q645,1119 644,1118 Q644,1118 644,1118 Q643,1118 642,1118 Q642,1117 638,1117 Q633,1117 632,1116 Q632,1116 629,1116 T626,1116"/>
    <path d="M978,1115 Q978,1116 988,1116 Q997,1116 998,1116 Q998,1117 1009,1117 Q1020,1117 1020,1118 Q1021,1118 1023,1118 Q1025,1118 1026,1118 Q1026,1119 1028,1119 Q1030,1119 1030,1120 Q1031,1120 1032,1120 Q1033,1120 1034,1122 Q1036,1123 1036,1124 Q1036,1125 1038,1127 Q1039,1129 1039,1130 Q1039,1132 1040,1132 Q1040,1133 1040,1137 Q1040,1141 1040,1142 Q1041,1142 1043,1142 Q1045,1142 1046,1142 Q1046,1141 1048,1141 Q1049,1141 1050,1140 Q1050,1140 1052,1140 Q1055,1140 1056,1140 Q1056,1139 1056,1139 Q1057,1139 1058,1138 Q1058,1138 1059,1138 Q1060,1138 1060,1138 Q1061,1137 1062,1138 Q1062,1138 1064,1138 Q1067,1138 1068,1138 Q1068,1139 1068,1139 Q1069,1139 1070,1140 Q1070,1140 1070,1140 Q1069,1141 1068,1142 Q1068,1144 1068,1144 Q1069,1144 1070,1142 Q1071,1141 1072,1141 Q1073,1141 1074,1142 Q1074,1142 1075,1142 Q1076,1142 1076,1142 Q1077,1143 1082,1143 Q1086,1143 1086,1142 Q1087,1142 1092,1142 Q1096,1142 1096,1142 Q1097,1143 1100,1144 Q1102,1145 1103,1146 Q1104,1147 1105,1147 Q1106,1147 1108,1148 Q1109,1149 1110,1149 Q1111,1149 1112,1150 Q1112,1150 1114,1150 Q1116,1150 1118,1152 Q1120,1153 1122,1153 Q1124,1153 1126,1154 Q1127,1155 1128,1155 Q1130,1155 1132,1157 Q1133,1159 1133,1161 Q1133,1163 1132,1164 Q1132,1164 1132,1166 Q1132,1167 1130,1170 Q1127,1173 1127,1174 Q1127,1175 1126,1177 Q1124,1179 1124,1180 Q1124,1182 1124,1182 Q1123,1183 1124,1186 Q1124,1188 1124,1188 Q1123,1189 1123,1190 Q1123,1190 1124,1190 Q1125,1190 1126,1190 Q1126,1189 1126,1190 Q1127,1190 1128,1190 Q1129,1190 1130,1190 Q1130,1191 1130,1191 Q1131,1191 1132,1192 Q1134,1194 1134,1194 Q1134,1195 1135,1196 Q1136,1197 1136,1198 Q1136,1198 1137,1199 Q1138,1200 1138,1200 Q1138,1201 1140,1202 Q1141,1204 1141,1205 Q1141,1206 1142,1207 Q1143,1208 1143,1209 Q1143,1210 1144,1210 Q1144,1211 1144,1213 Q1144,1215 1144,1216 Q1145,1216 1145,1221 Q1145,1226 1144,1226 Q1144,1227 1144,1228 Q1144,1229 1142,1230 Q1141,1232 1141,1234 Q1141,1235 1140,1237 Q1138,1239 1138,1240 Q1138,1241 1136,1243 Q1135,1245 1135,1248 Q1135,1250 1134,1250 Q1134,1251 1134,1253 Q1134,1255 1134,1256 Q1135,1256 1135,1258 Q1135,1259 1136,1260 Q1136,1260 1138,1260 Q1139,1260 1140,1260 Q1140,1259 1142,1259 Q1143,1259 1143,1258 Q1143,1258 1141,1258 Q1139,1258 1138,1258 Q1138,1259 1138,1259 Q1137,1259 1136,1258 Q1136,1258 1136,1256 Q1136,1255 1136,1254 Q1135,1254 1135,1253 Q1135,1252 1136,1252 Q1136,1251 1136,1248 Q1136,1246 1138,1244 Q1139,1242 1139,1241 Q1139,1240 1140,1238 Q1142,1236 1142,1234 Q1142,1233 1144,1232 Q1145,1230 1145,1229 Q1145,1228 1146,1228 Q1146,1227 1146,1221 Q1146,1215 1146,1214 Q1145,1214 1145,1212 Q1145,1210 1144,1210 Q1144,1209 1144,1208 Q1144,1207 1143,1206 Q1142,1205 1142,1204 Q1142,1203 1140,1202 Q1139,1200 1139,1200 Q1139,1199 1138,1198 Q1137,1197 1137,1196 Q1137,1196 1136,1195 Q1135,1194 1135,1194 Q1135,1193 1134,1192 Q1132,1190 1129,1189 Q1126,1188 1126,1188 Q1125,1187 1125,1186 Q1125,1185 1124,1184 Q1124,1184 1124,1184 Q1125,1183 1125,1182 Q1125,1180 1126,1178 Q1128,1176 1128,1175 Q1128,1174 1130,1171 Q1133,1168 1133,1166 Q1133,1165 1134,1164 Q1134,1164 1134,1161 Q1134,1158 1134,1158 Q1133,1157 1133,1156 Q1133,1156 1132,1155 Q1131,1154 1130,1154 Q1128,1154 1126,1153 Q1125,1152 1123,1152 Q1121,1152 1119,1150 Q1117,1149 1115,1149 Q1113,1149 1112,1148 Q1112,1148 1111,1148 Q1110,1148 1108,1147 Q1107,1146 1106,1146 Q1105,1146 1104,1145 Q1103,1144 1102,1144 Q1102,1144 1100,1142 Q1097,1141 1092,1141 Q1086,1141 1086,1142 Q1085,1142 1082,1142 Q1078,1142 1078,1142 Q1077,1141 1074,1140 Q1072,1140 1070,1138 Q1068,1137 1066,1137 Q1063,1137 1062,1136 Q1062,1136 1060,1136 Q1057,1137 1056,1138 Q1054,1139 1052,1139 Q1049,1139 1048,1140 Q1048,1140 1046,1140 Q1045,1140 1044,1140 Q1044,1141 1043,1141 Q1042,1141 1042,1140 Q1041,1140 1041,1136 Q1041,1132 1040,1132 Q1040,1131 1040,1130 Q1040,1128 1038,1126 Q1037,1124 1037,1123 Q1037,1122 1036,1122 Q1036,1121 1036,1120 Q1036,1120 1038,1118 Q1039,1117 1075,1117 Q1111,1117 1112,1116 Q1112,1116 1116,1116 Q1121,1116 1121,1116 Q1121,1115 1116,1115 Q1111,1115 1110,1116 Q1110,1116 1074,1116 Q1038,1116 1036,1118 Q1035,1119 1034,1119 Q1032,1119 1032,1118 Q1031,1118 1029,1118 Q1027,1118 1026,1118 Q1026,1117 1024,1117 Q1022,1117 1022,1116 Q1021,1116 1010,1116 Q999,1116 998,1116 T998,1115"/>
    <path d="M548,1115 Q548,1116 560,1116 Q573,1116 573,1116 T573,1115"/>
    <path d="M636,1105 Q636,1106 644,1106 Q653,1106 654,1106 Q654,1105 654,1106 Q655,1106 657,1106 Q659,1106 660,1106 Q660,1105 685,1105 Q710,1105 710,1104 Q711,1104 714,1104 Q717,1104 718,1104 Q718,1105 746,1105 Q773,1105 774,1106 Q774,1106 781,1106 Q788,1106 788,1106 Q788,1105 787,1105 Q786,1105 786,1104 Q785,1104 784,1104 Q784,1104 784,1104 Q783,1105 779,1105 Q775,1105 774,1104 Q774,1104 746,1104 Q719,1104 718,1104 Q718,1103 714,1103 Q710,1103 710,1104 Q709,1104 684,1104 Q659,1104 658,1104 Q658,1105 657,1105 Q656,1105 656,1104 Q655,1104 654,1104 Q653,1104 652,1104 T652,1105"/>
    <path d="M339,1105 Q313,1105 312,1104 Q312,1104 302,1104 Q291,1104 290,1104 Q290,1105 288,1105 Q286,1105 286,1104 Q285,1104 284,1104 Q282,1104 282,1104 Q281,1105 280,1105 Q278,1105 278,1104 Q277,1104 273,1104 Q269,1104 268,1103 Q267,1102 267,1100 Q267,1097 268,1096 Q268,1096 268,1096 Q269,1096 270,1096 Q270,1095 270,1095 Q271,1095 274,1092 Q276,1090 276,1090 Q276,1089 276,1088 Q277,1088 277,1084 Q277,1081 276,1080 Q276,1080 276,1080 Q276,1079 275,1078 Q274,1077 273,1077 Q272,1077 271,1076 Q270,1075 269,1075 Q268,1075 268,1076 Q267,1076 266,1076 Q265,1076 264,1076 Q264,1077 264,1078 Q264,1078 264,1078 Q263,1079 263,1080 Q263,1081 262,1082 Q262,1082 261,1082 Q260,1082 260,1082 Q260,1083 260,1084 Q261,1084 261,1086 Q261,1088 260,1088 Q260,1089 258,1089 Q256,1089 256,1090 Q256,1090 258,1090 Q260,1090 260,1090 Q261,1091 261,1092 Q261,1092 262,1092 Q262,1093 262,1094 Q262,1094 263,1095 Q264,1096 264,1096 Q265,1096 266,1096 Q266,1097 266,1100 Q266,1102 265,1103 Q264,1104 238,1104 Q211,1104 210,1104 Q210,1105 210,1105 Q209,1105 208,1104 Q208,1104 206,1104 Q205,1104 204,1104 Q204,1105 199,1105 Q194,1105 194,1104 Q193,1104 192,1104 Q192,1104 192,1104 Q191,1105 190,1105 Q189,1105 188,1104 Q188,1104 184,1104 Q181,1104 180,1104 Q180,1105 174,1105 Q169,1105 169,1106 Q169,1106 175,1106 Q181,1106 182,1106 Q182,1105 184,1105 Q187,1105 188,1106 Q188,1106 196,1106 Q205,1106 206,1106 Q206,1105 206,1105 Q207,1105 208,1106 Q208,1106 210,1106 Q211,1106 212,1106 Q212,1105 238,1105 Q265,1105 266,1104 Q266,1104 266,1104 Q267,1104 268,1104 Q268,1105 272,1105 Q276,1105 276,1106 Q277,1106 280,1106 Q282,1106 282,1106 Q283,1105 284,1105 Q284,1105 284,1106 Q285,1106 288,1106 Q291,1106 292,1106 Q292,1105 302,1105 Q311,1105 312,1106 Q312,1106 326,1106 T339,1106"/>
    <path d="M136,1077 Q134,1079 134,1080 Q134,1080 133,1081 Q132,1082 132,1083 Q132,1084 132,1084 Q131,1085 131,1086 Q131,1088 130,1090 Q128,1091 127,1091 Q126,1091 126,1092 Q126,1092 128,1092 Q129,1092 130,1091 Q131,1090 132,1090 Q132,1090 132,1090 Q133,1091 133,1092 Q133,1092 134,1092 Q134,1093 134,1094 Q134,1094 134,1094 Q135,1095 136,1095 Q137,1095 138,1096 Q140,1098 141,1098 Q142,1098 142,1098 Q143,1099 144,1099 Q145,1099 146,1100 Q146,1100 146,1100 Q147,1100 148,1100 Q148,1099 150,1099 Q151,1099 152,1100 Q153,1101 154,1101 Q154,1101 154,1100 Q154,1100 154,1100 Q153,1099 153,1098 Q153,1097 152,1097 Q152,1097 152,1098 Q151,1098 148,1098 Q144,1098 144,1098 Q143,1097 142,1097 Q141,1097 140,1096 Q138,1094 137,1094 Q136,1094 136,1094 Q135,1093 135,1092 Q135,1092 134,1092 Q134,1091 134,1090 Q134,1090 133,1089 Q132,1088 132,1087 Q132,1086 132,1086 Q133,1085 133,1084 Q133,1083 134,1082 Q135,1081 135,1080 Q135,1080 136,1079 Q137,1078 138,1078 Q138,1078 138,1078 Q139,1077 140,1077 Q140,1077 140,1076 Q141,1076 142,1076 Q144,1076 144,1076 Q145,1077 146,1077 Q147,1077 148,1078 Q148,1078 148,1078 Q149,1078 149,1078 Q149,1077 148,1076 Q148,1076 147,1076 Q146,1076 146,1076 Q145,1075 142,1075 Q140,1075 140,1076 Q139,1076 138,1076 Q138,1076 138,1076 T137,1077"/>
    <path d="M161,1073 Q161,1074 162,1075 Q163,1076 163,1077 Q163,1078 162,1078 Q162,1079 162,1084 Q162,1088 163,1089 Q164,1090 164,1090 Q164,1091 165,1092 Q166,1093 166,1094 Q166,1094 166,1094 Q167,1095 168,1095 Q168,1095 168,1096 Q169,1096 171,1096 Q173,1096 174,1094 Q176,1093 176,1092 Q176,1092 176,1092 Q177,1091 178,1091 Q178,1091 178,1090 Q179,1090 180,1090 Q180,1090 181,1091 Q182,1092 184,1092 Q185,1092 185,1092 Q185,1091 184,1091 Q183,1091 182,1090 Q180,1088 180,1088 Q181,1087 181,1086 Q181,1085 182,1084 Q182,1084 184,1084 Q186,1084 186,1084 Q186,1083 184,1083 Q182,1083 182,1082 Q181,1082 181,1080 Q181,1079 180,1078 Q180,1078 180,1078 Q180,1077 180,1076 Q179,1076 179,1076 Q179,1075 178,1075 Q178,1075 178,1076 Q178,1077 178,1078 Q179,1078 179,1078 Q179,1079 180,1080 Q180,1080 180,1083 Q180,1086 179,1087 Q178,1088 178,1088 Q178,1089 178,1090 Q177,1090 176,1088 Q174,1087 174,1087 Q173,1087 173,1088 Q173,1088 174,1089 Q175,1090 175,1091 Q175,1092 174,1094 Q172,1095 171,1095 Q170,1095 170,1094 Q169,1094 169,1094 Q169,1093 168,1092 Q168,1092 168,1092 Q167,1092 166,1091 Q165,1090 165,1090 Q165,1089 164,1088 Q163,1087 163,1084 Q163,1080 164,1080 Q164,1079 164,1077 Q164,1075 163,1074 T162,1073"/>
    <path d="M289,1072 Q289,1073 290,1074 Q290,1074 292,1074 Q294,1074 296,1076 Q297,1077 297,1078 Q297,1080 296,1080 Q296,1081 294,1081 Q292,1081 292,1082 Q292,1082 294,1082 Q297,1082 298,1082 Q298,1083 298,1084 Q297,1084 297,1086 Q297,1088 296,1088 Q296,1089 294,1089 Q292,1089 292,1090 Q292,1090 294,1090 Q296,1090 296,1090 Q297,1091 297,1092 Q297,1093 298,1094 Q298,1094 298,1095 Q298,1096 298,1096 Q299,1097 300,1097 Q300,1097 300,1098 Q301,1098 302,1098 Q303,1098 303,1098 Q303,1097 302,1097 Q302,1097 302,1096 Q301,1096 300,1096 Q300,1096 300,1096 Q299,1095 299,1094 Q299,1093 298,1092 Q298,1092 298,1088 Q298,1085 298,1084 Q299,1084 299,1084 Q299,1083 300,1082 Q301,1081 302,1081 Q303,1081 304,1080 Q304,1080 306,1080 Q307,1080 308,1080 Q308,1079 310,1079 Q312,1079 312,1078 Q313,1078 314,1078 Q314,1078 314,1078 Q315,1077 316,1077 Q317,1077 317,1076 Q317,1076 316,1076 Q314,1076 314,1076 Q313,1077 312,1077 Q312,1077 312,1078 Q311,1078 309,1078 Q307,1078 306,1078 Q306,1079 304,1079 Q303,1079 302,1080 Q302,1080 301,1080 Q300,1080 300,1080 Q299,1081 298,1080 Q298,1080 298,1078 Q298,1076 296,1074 Q295,1073 293,1073 Q291,1073 290,1072 T290,1072"/>
    <path d="M201,1071 Q201,1074 200,1074 Q200,1075 198,1075 Q196,1075 196,1076 Q196,1076 198,1076 Q201,1076 202,1076 Q202,1077 202,1080 Q202,1083 202,1084 Q201,1084 200,1084 Q200,1084 200,1084 Q199,1085 197,1085 Q195,1085 194,1086 Q193,1087 193,1088 Q193,1088 192,1088 Q192,1089 192,1090 Q192,1091 191,1092 Q190,1093 190,1093 Q189,1093 189,1094 Q189,1094 190,1094 Q191,1094 192,1094 Q192,1093 193,1094 Q194,1095 200,1095 Q207,1095 208,1096 Q209,1097 210,1097 Q210,1097 210,1096 Q210,1096 210,1096 Q209,1095 210,1094 Q210,1094 210,1086 Q210,1079 210,1078 Q209,1078 209,1077 Q209,1076 208,1075 Q207,1074 205,1074 Q203,1074 202,1074 Q202,1073 202,1072 T202,1071"/>
    <path d="M247,1050 Q246,1050 246,1051 Q246,1052 246,1052 Q247,1053 247,1056 Q247,1059 246,1060 Q246,1060 246,1060 Q245,1059 244,1059 Q242,1059 242,1058 Q241,1058 234,1058 Q226,1058 226,1058 Q225,1059 224,1059 Q224,1059 224,1060 Q223,1060 222,1060 Q221,1060 221,1060 Q221,1061 222,1061 Q224,1061 224,1060 Q225,1060 226,1060 Q226,1060 226,1060 Q227,1059 234,1059 Q240,1059 240,1060 Q241,1060 242,1060 Q244,1060 245,1061 Q246,1062 246,1062 Q246,1063 246,1064 Q247,1064 247,1065 Q247,1066 246,1066 Q246,1067 246,1070 Q246,1072 246,1072 Q245,1073 245,1074 Q245,1076 244,1076 Q244,1077 240,1077 Q235,1077 234,1078 Q234,1078 233,1078 Q232,1078 232,1078 Q231,1079 230,1079 Q230,1079 228,1080 Q227,1082 227,1085 Q227,1088 228,1088 Q228,1089 228,1090 Q228,1090 231,1093 Q234,1096 238,1096 Q242,1096 244,1094 Q245,1093 245,1086 Q245,1079 246,1078 Q246,1078 246,1076 Q246,1074 246,1074 Q247,1073 247,1070 Q247,1068 248,1068 Q248,1067 248,1066 Q248,1065 248,1064 Q249,1064 250,1064 Q250,1064 251,1065 Q252,1066 253,1066 Q254,1066 254,1066 Q254,1065 254,1065 Q253,1065 252,1064 Q251,1063 252,1062 Q254,1060 254,1060 Q254,1059 254,1059 Q253,1059 251,1061 Q249,1063 248,1063 Q248,1063 248,1062 Q247,1062 247,1062 Q247,1061 248,1060 Q248,1060 248,1058 Q248,1057 248,1056 Q249,1056 251,1056 Q253,1056 253,1056 Q253,1055 251,1055 Q249,1055 248,1054 Q248,1054 248,1053 Q248,1052 248,1052 T247,1051"/>
    <path d="M111,1049 Q110,1049 110,1048 Q109,1048 108,1048 Q106,1048 106,1048 Q105,1047 104,1047 Q102,1047 102,1048 Q101,1048 98,1048 Q95,1048 94,1048 Q94,1049 90,1049 Q87,1049 86,1050 Q86,1050 82,1050 Q78,1050 78,1050 Q77,1051 76,1051 Q74,1051 74,1052 Q73,1052 72,1052 Q71,1052 70,1052 Q70,1051 70,1051 Q69,1051 69,1052 Q69,1052 70,1052 Q70,1053 70,1053 Q71,1053 72,1054 Q72,1054 72,1056 Q72,1057 72,1058 Q73,1058 73,1059 Q73,1060 74,1060 Q74,1061 74,1064 Q74,1068 74,1068 Q75,1069 75,1076 Q75,1082 74,1082 Q74,1083 74,1083 Q73,1083 73,1084 Q73,1084 74,1084 Q74,1084 75,1085 Q76,1086 76,1089 Q76,1092 76,1092 Q75,1093 74,1093 Q72,1093 72,1094 Q72,1094 76,1094 Q80,1094 80,1094 Q81,1093 82,1094 Q82,1094 86,1094 Q90,1094 90,1094 Q91,1093 96,1093 Q101,1093 102,1092 Q102,1092 107,1092 Q112,1092 112,1092 Q112,1091 106,1091 Q101,1091 100,1092 Q100,1092 95,1092 Q90,1092 90,1092 Q89,1093 86,1093 Q83,1093 82,1092 Q82,1092 81,1092 Q80,1092 80,1092 Q79,1093 78,1093 Q78,1093 78,1092 Q77,1092 77,1088 Q77,1085 76,1084 Q76,1084 76,1078 Q76,1073 76,1072 Q77,1072 78,1072 Q78,1072 78,1072 Q79,1071 84,1071 Q88,1071 88,1070 Q89,1070 90,1070 Q91,1070 92,1070 Q92,1071 92,1078 Q92,1085 92,1085 Q93,1085 93,1078 Q93,1070 94,1069 Q95,1068 95,1067 Q95,1066 96,1066 Q96,1065 96,1064 Q96,1064 96,1064 Q97,1063 97,1062 Q97,1062 96,1062 Q96,1062 96,1062 Q95,1063 95,1064 Q95,1064 94,1064 Q94,1065 94,1066 Q94,1067 93,1068 Q92,1069 90,1069 Q88,1069 88,1070 Q87,1070 85,1070 Q83,1070 82,1070 Q82,1069 82,1068 Q82,1066 82,1066 Q81,1066 81,1068 Q81,1069 80,1070 Q80,1070 79,1070 Q78,1070 78,1070 Q77,1071 76,1070 Q76,1070 76,1069 Q76,1068 76,1068 Q75,1067 75,1064 Q75,1060 74,1060 Q74,1059 74,1058 Q74,1057 74,1056 Q73,1056 73,1055 Q73,1054 74,1053 Q75,1052 76,1052 Q78,1052 78,1052 Q79,1051 83,1051 Q87,1051 88,1050 Q88,1050 92,1050 Q95,1050 96,1050 Q96,1049 99,1049 Q102,1049 102,1048 Q103,1048 104,1048 Q104,1048 104,1048 Q105,1049 106,1049 Q108,1049 108,1050 Q109,1050 110,1050 T111,1050"/>
    <path d="M934,714 Q934,715 935,715 Q936,715 937,716 Q938,717 940,717 Q941,717 942,718 Q942,718 942,722 Q942,727 942,728 Q941,728 941,729 Q941,730 940,730 Q940,731 940,732 Q940,732 940,732 Q941,732 942,732 Q942,731 942,730 Q942,729 942,728 Q943,728 943,723 Q943,718 944,717 Q945,716 946,716 Q946,716 947,717 Q948,718 950,718 Q953,718 954,720 Q956,721 958,721 Q959,721 960,722 Q960,722 960,722 Q961,722 962,722 Q962,723 962,723 Q963,723 964,724 Q966,726 967,726 Q968,726 970,728 Q972,730 973,730 Q974,730 976,731 Q977,732 979,732 Q981,732 982,731 Q983,730 983,728 Q983,725 984,724 Q984,724 984,723 Q984,722 984,722 Q985,721 985,720 Q985,719 986,718 Q987,717 988,718 Q988,718 988,718 Q988,719 989,720 Q990,721 990,721 Q991,721 992,720 Q992,720 992,720 Q992,719 992,718 Q993,718 994,718 Q994,718 996,720 Q997,721 998,721 Q999,721 1000,722 Q1002,724 1002,724 Q1003,724 1004,725 Q1005,726 1006,726 Q1006,726 1007,727 Q1008,728 1008,728 Q1009,728 1012,731 Q1015,734 1016,734 Q1018,734 1018,734 Q1019,735 1020,735 Q1022,735 1022,734 Q1023,734 1024,734 Q1024,734 1025,733 Q1026,732 1026,732 Q1026,731 1028,729 Q1030,727 1030,726 Q1030,725 1032,723 Q1034,721 1034,720 Q1034,719 1035,718 Q1036,717 1036,716 Q1036,716 1036,716 Q1037,715 1038,715 Q1038,715 1039,714 Q1040,713 1041,713 Q1042,713 1042,714 Q1043,714 1044,714 Q1046,714 1048,716 Q1049,717 1050,717 Q1050,717 1052,718 Q1053,720 1054,720 Q1054,720 1056,722 Q1057,723 1058,723 Q1058,723 1060,725 Q1062,727 1063,727 Q1064,727 1066,728 Q1067,730 1068,730 Q1068,730 1070,732 Q1073,735 1074,735 Q1074,735 1074,736 Q1075,736 1076,736 Q1077,736 1078,736 Q1078,737 1078,738 Q1077,738 1077,738 Q1077,739 1078,739 Q1078,739 1078,738 Q1079,738 1079,738 Q1079,737 1080,736 Q1081,735 1081,734 Q1081,734 1082,734 Q1082,733 1082,733 Q1083,733 1084,732 Q1085,731 1085,730 Q1085,730 1086,728 Q1088,727 1088,726 Q1088,726 1088,726 Q1089,725 1089,724 Q1089,722 1090,722 Q1090,721 1090,720 Q1090,720 1091,718 Q1092,717 1093,717 Q1094,717 1095,718 Q1096,719 1096,719 Q1097,719 1099,721 Q1101,723 1102,723 Q1102,723 1103,724 Q1104,725 1104,725 Q1105,725 1106,726 Q1108,728 1108,728 Q1108,729 1109,730 Q1110,731 1111,731 Q1112,731 1112,730 Q1113,730 1113,730 Q1113,729 1112,729 Q1112,729 1112,730 Q1111,730 1110,729 Q1109,728 1109,728 Q1109,727 1108,726 Q1106,724 1106,724 Q1105,724 1104,723 Q1103,722 1102,722 Q1102,722 1100,720 Q1098,718 1098,718 Q1097,718 1096,717 Q1095,716 1094,716 Q1094,716 1094,716 Q1093,715 1093,714 Q1093,714 1094,714 Q1094,713 1094,712 Q1094,712 1094,712 Q1093,712 1092,712 Q1092,713 1092,714 Q1092,715 1091,716 Q1090,717 1090,718 Q1090,718 1089,720 Q1088,721 1088,722 Q1088,724 1088,724 Q1087,725 1087,726 Q1087,726 1086,728 Q1084,729 1084,730 Q1084,730 1083,731 Q1082,732 1082,732 Q1081,732 1080,732 Q1080,733 1080,734 Q1080,734 1080,734 Q1079,735 1078,735 Q1076,735 1076,734 Q1075,734 1074,734 Q1074,734 1072,732 Q1069,729 1068,729 Q1068,729 1066,728 Q1065,726 1064,726 Q1063,726 1061,724 Q1059,722 1058,722 Q1058,722 1056,720 Q1055,719 1054,719 Q1054,719 1052,718 Q1051,716 1050,716 Q1050,716 1048,714 Q1047,713 1046,713 Q1044,713 1044,712 Q1043,712 1041,712 Q1039,712 1038,713 Q1037,714 1036,714 Q1036,714 1036,714 Q1035,715 1035,716 Q1035,716 1034,717 Q1033,718 1033,719 Q1033,720 1031,722 Q1029,724 1029,725 Q1029,726 1027,728 Q1025,730 1025,730 Q1025,731 1024,732 Q1023,733 1022,733 Q1022,733 1022,734 Q1021,734 1020,734 Q1020,734 1020,734 Q1019,733 1018,733 Q1016,733 1013,730 Q1010,727 1010,727 Q1009,727 1008,726 Q1007,725 1006,725 Q1006,725 1005,724 Q1004,723 1004,723 Q1003,723 1002,722 Q1000,720 999,720 Q998,720 996,718 Q995,717 992,717 Q989,717 988,716 Q986,714 986,714 Q986,713 986,712 Q985,712 985,712 Q985,711 984,711 Q984,711 984,712 Q984,713 984,714 Q985,714 985,716 Q985,717 984,718 Q984,718 984,719 Q984,720 983,722 Q982,723 982,722 Q981,722 980,722 Q980,722 980,722 Q980,723 981,724 Q982,725 982,727 Q982,729 981,730 Q980,731 979,731 Q978,731 976,730 Q975,729 974,729 Q973,729 971,727 Q969,725 968,725 Q967,725 966,724 Q964,722 964,722 Q963,722 962,721 Q960,720 958,720 Q957,720 956,718 Q954,717 952,717 Q949,717 948,716 Q947,715 946,715 Q944,715 944,716 Q943,716 941,716 Q939,716 938,715 T937,714"/>
    <path d="M1101,685 Q1099,685 1098,686 Q1098,686 1097,686 Q1096,686 1094,684 Q1092,682 1092,682 Q1091,682 1088,678 Q1084,675 1082,675 Q1081,675 1080,674 Q1080,674 1078,674 Q1077,674 1076,674 Q1076,675 1074,675 Q1073,675 1072,676 Q1072,676 1071,676 Q1070,676 1069,677 Q1068,678 1068,678 Q1068,679 1066,681 Q1064,683 1063,683 Q1062,683 1059,686 Q1056,689 1054,689 Q1053,689 1052,688 Q1052,688 1051,688 Q1050,688 1050,688 Q1049,687 1048,687 Q1048,687 1045,684 Q1042,681 1041,681 Q1040,681 1040,680 Q1039,680 1038,680 Q1038,680 1036,678 Q1034,676 1033,676 Q1032,676 1032,676 Q1031,675 1031,674 Q1031,673 1030,673 Q1030,673 1029,674 Q1028,675 1028,675 Q1027,675 1026,676 Q1025,677 1024,677 Q1024,677 1023,678 Q1022,679 1022,679 Q1021,679 1020,680 Q1020,680 1020,680 Q1020,681 1019,682 Q1018,683 1018,684 Q1018,684 1015,687 Q1012,690 1012,690 Q1011,690 1010,690 Q1010,691 1010,691 Q1009,691 1008,690 Q1008,690 1007,690 Q1006,690 1006,690 Q1005,689 1004,689 Q1004,689 1004,688 Q1003,688 1002,688 Q1000,687 998,684 Q995,682 992,681 Q989,680 988,680 Q988,679 988,678 Q989,678 989,678 Q989,677 988,677 Q988,677 988,678 Q987,678 987,678 Q987,679 986,680 Q986,680 986,680 Q985,680 982,683 Q979,686 979,686 Q979,687 978,688 Q976,690 976,691 Q976,692 975,693 Q974,694 972,694 Q971,694 970,694 Q970,693 970,693 Q969,693 968,692 Q968,692 968,692 Q967,692 966,692 Q966,691 964,690 Q963,690 961,688 Q959,686 958,686 Q957,686 956,685 Q955,684 954,684 Q952,683 951,682 Q950,681 950,681 Q949,681 948,680 Q948,680 946,680 Q944,680 941,677 Q938,674 938,674 Q937,674 937,674 Q937,675 938,676 Q940,678 938,680 Q936,683 936,684 Q936,684 936,684 Q935,685 935,686 Q935,687 934,688 Q933,689 933,690 Q933,690 932,690 Q932,691 932,692 Q931,694 930,695 Q929,696 928,696 Q927,696 926,695 Q925,694 924,694 Q924,694 923,693 Q922,692 922,692 Q921,692 920,691 Q919,690 918,690 Q918,690 917,689 Q916,688 916,688 Q915,688 914,687 Q913,686 912,686 Q912,686 910,684 Q908,682 908,682 Q907,682 906,682 Q906,681 906,681 Q905,681 904,680 Q904,680 904,680 Q903,680 902,679 Q900,678 898,678 Q897,678 896,678 Q896,677 897,676 Q898,675 898,674 Q898,674 898,674 Q897,674 896,676 Q894,677 893,677 Q892,677 891,678 Q890,679 890,680 Q890,680 889,681 Q888,682 888,683 Q888,684 888,684 Q887,685 887,686 Q887,686 886,687 Q885,688 885,688 Q885,689 884,690 Q884,690 884,692 Q883,693 882,694 Q882,694 882,694 Q881,693 880,693 Q880,693 880,694 Q880,694 882,696 Q883,697 883,698 Q883,698 884,698 Q884,699 884,699 Q885,699 885,698 Q885,698 884,696 Q883,695 884,694 Q884,694 884,694 Q884,693 884,692 Q885,692 886,690 Q886,689 887,688 Q888,687 888,686 Q888,686 888,686 Q889,685 889,684 Q889,683 891,680 Q893,678 894,678 Q895,678 896,678 Q896,679 898,679 Q899,679 900,680 Q900,680 900,680 Q901,680 902,680 Q902,681 902,681 Q903,681 904,682 Q904,682 906,682 Q907,683 909,685 Q911,687 912,687 Q912,687 913,688 Q914,689 914,689 Q915,689 916,690 Q917,691 918,691 Q918,691 919,692 Q920,693 920,693 Q921,693 922,694 Q923,695 924,695 Q924,695 926,696 Q927,698 926,698 Q926,699 926,700 Q926,701 926,701 Q927,701 927,700 Q927,700 928,698 Q929,697 930,697 Q931,697 932,698 Q934,700 934,700 Q935,700 935,700 Q935,699 934,698 Q932,696 932,695 Q932,694 932,694 Q933,693 934,692 Q934,690 935,689 Q936,688 936,687 Q936,686 936,686 Q937,685 937,684 Q937,684 939,682 Q941,679 942,680 Q943,681 945,681 Q947,681 948,682 Q948,682 948,682 Q949,682 950,683 Q951,684 952,684 Q954,685 955,686 Q956,687 957,687 Q958,687 960,689 Q962,691 962,691 Q963,691 964,692 Q964,692 964,692 Q965,692 966,692 Q966,693 966,693 Q967,693 968,694 Q970,695 972,695 Q975,695 976,694 Q977,693 977,692 Q977,691 978,690 Q980,688 980,688 Q980,687 983,684 Q986,681 988,681 Q989,681 990,682 Q990,682 991,682 Q992,682 992,682 Q993,683 994,683 Q994,683 996,686 Q999,688 1000,688 Q1000,688 1000,688 Q1001,689 1002,689 Q1002,689 1004,690 Q1005,691 1006,691 Q1007,691 1008,692 Q1008,692 1010,692 Q1011,692 1012,692 Q1012,691 1012,691 Q1013,691 1016,688 Q1019,685 1019,684 Q1019,684 1020,683 Q1021,682 1021,682 Q1021,681 1022,680 Q1022,680 1022,680 Q1023,680 1026,678 Q1028,676 1029,676 Q1030,676 1030,676 Q1031,677 1032,677 Q1033,677 1035,679 Q1037,681 1038,681 Q1038,681 1038,682 Q1039,682 1040,682 Q1041,682 1044,685 Q1047,688 1048,688 Q1048,688 1048,688 Q1049,689 1050,689 Q1051,689 1052,690 Q1053,691 1053,692 Q1053,693 1054,694 Q1054,694 1054,694 Q1055,694 1054,692 Q1054,691 1054,690 Q1055,690 1056,690 Q1057,690 1060,687 Q1063,684 1064,684 Q1065,684 1067,682 Q1069,680 1069,680 Q1069,679 1070,678 Q1071,677 1072,677 Q1073,677 1074,676 Q1074,676 1076,676 Q1077,676 1078,676 Q1078,675 1078,675 Q1079,675 1080,676 Q1080,676 1082,676 Q1083,676 1086,680 Q1090,683 1090,683 Q1091,683 1093,685 Q1095,687 1096,687 Q1097,687 1098,688 Q1099,690 1100,690 Q1100,690 1100,688 Q1099,687 1100,686 Q1100,686 1100,686 T1101,686"/>
    <path d="M1089,637 Q1089,636 1088,636 Q1088,636 1087,635 Q1086,634 1086,634 Q1086,633 1085,632 Q1084,631 1084,630 Q1084,630 1080,626 Q1077,623 1076,623 Q1076,623 1076,622 Q1075,622 1074,622 Q1074,622 1073,621 Q1072,620 1070,620 Q1067,620 1066,620 Q1066,619 1066,619 Q1065,619 1064,618 Q1064,618 1064,618 Q1063,618 1062,618 Q1062,617 1060,617 Q1057,617 1056,616 Q1056,616 1057,615 Q1058,614 1058,614 Q1058,613 1058,612 Q1059,612 1059,611 Q1059,610 1058,610 Q1058,610 1058,610 Q1058,611 1058,612 Q1057,612 1057,612 Q1057,613 1056,614 Q1054,616 1053,616 Q1052,616 1051,615 Q1050,614 1036,614 Q1021,614 1020,614 Q1020,615 1012,615 Q1003,615 1002,616 Q1002,616 1000,616 Q999,616 998,616 Q998,617 998,617 Q997,617 994,620 Q991,623 990,623 Q990,623 990,624 Q989,624 988,624 Q988,624 987,625 Q986,626 985,626 Q984,626 984,626 Q983,627 982,627 Q982,627 981,628 Q980,629 980,629 Q979,629 978,630 Q977,631 977,632 Q977,634 976,634 Q976,635 973,635 Q970,635 970,636 Q969,636 968,636 Q966,636 966,636 Q965,635 964,635 Q964,635 964,634 Q963,634 962,634 Q962,634 962,634 Q961,633 960,633 Q960,633 960,632 Q959,632 958,632 Q957,632 956,632 Q956,631 954,631 Q951,631 950,630 Q949,629 947,629 Q945,629 944,628 Q944,628 942,628 Q941,628 940,628 Q940,629 940,630 Q940,630 940,630 Q939,631 938,631 Q938,631 936,632 Q935,634 934,634 Q933,634 933,634 Q933,635 934,635 Q936,635 938,634 Q939,632 940,632 Q940,632 940,632 Q941,633 941,634 Q941,635 942,636 Q942,636 942,637 Q942,638 942,638 Q943,639 943,641 Q943,643 944,644 Q945,645 945,646 Q945,647 946,648 Q947,649 947,650 Q947,651 948,652 Q948,652 948,653 Q948,654 949,655 Q950,656 950,656 Q950,657 950,657 Q951,657 952,656 Q953,655 954,655 Q954,655 954,654 Q955,654 956,654 Q956,654 958,652 Q960,650 960,650 Q960,649 962,647 Q964,645 964,644 Q964,643 964,642 Q965,642 965,640 Q965,639 966,638 Q967,637 968,637 Q970,637 970,636 Q971,636 974,636 Q976,636 977,637 Q978,638 978,638 Q979,638 980,638 Q980,639 982,639 Q983,639 984,640 Q984,640 986,640 Q987,640 988,640 Q988,641 988,642 Q988,644 988,644 Q989,645 990,645 Q990,645 990,644 Q990,644 990,644 Q989,643 989,642 Q989,641 990,640 Q990,640 994,640 Q997,640 998,640 Q998,641 999,641 Q1000,641 1000,642 Q1001,642 1005,642 Q1009,642 1010,642 Q1010,643 1014,643 Q1017,643 1018,644 Q1018,644 1022,644 Q1027,644 1028,644 Q1028,643 1030,643 Q1031,643 1032,644 Q1032,644 1034,644 Q1036,644 1036,644 Q1037,645 1039,645 Q1041,645 1042,646 Q1042,646 1044,646 Q1045,646 1046,646 Q1046,645 1046,645 Q1047,645 1048,646 Q1049,647 1049,648 Q1049,649 1050,650 Q1050,650 1050,650 Q1051,650 1051,650 Q1051,649 1050,648 Q1050,648 1050,647 Q1050,646 1050,646 Q1051,645 1052,645 Q1052,645 1052,644 Q1053,644 1059,644 Q1065,644 1066,644 Q1066,643 1071,643 Q1076,643 1076,642 Q1077,642 1078,642 Q1078,643 1078,646 Q1078,648 1078,648 Q1079,648 1079,646 Q1079,643 1080,642 Q1080,642 1080,642 Q1081,642 1082,642 Q1082,641 1082,641 Q1083,641 1084,640 Q1086,638 1087,638 T1088,638"/>
    <path d="M402,603 Q392,615 392,616 Q392,618 388,623 Q385,628 382,625 Q378,622 381,626 Q384,629 383,634 Q382,640 381,641 Q380,642 378,640 Q376,638 374,638 Q373,638 376,641 Q380,644 380,646 Q381,649 380,652 Q378,654 380,652 Q381,651 383,652 Q385,652 390,656 Q395,659 399,660 Q403,662 406,665 Q409,668 409,670 Q409,673 398,684 Q386,696 380,700 Q373,704 365,714 Q357,725 352,728 Q347,730 344,728 Q341,725 342,728 Q344,730 342,731 Q341,732 340,732 Q338,732 336,730 Q333,728 335,730 Q337,733 335,734 Q333,736 332,736 Q330,736 327,740 Q324,743 318,748 Q311,753 307,758 Q303,763 302,773 Q300,783 300,796 Q299,810 301,832 Q303,854 301,854 Q299,855 298,856 Q298,858 299,857 Q300,856 302,856 Q304,857 304,868 Q304,878 302,879 Q299,880 301,880 Q303,880 304,882 Q305,883 305,890 Q305,897 307,904 Q309,910 306,916 Q304,921 302,922 Q301,922 300,921 Q298,920 300,922 Q301,925 296,930 Q290,934 286,939 Q283,944 281,943 Q279,942 280,946 Q281,949 280,950 Q278,951 278,954 Q277,956 276,956 Q274,957 274,961 Q275,965 274,974 Q273,982 271,984 Q269,987 268,992 Q266,998 265,999 Q264,1000 262,1000 Q259,1000 262,1001 Q264,1002 264,1010 Q263,1019 269,1023 Q275,1027 287,1032 Q299,1036 301,1036 Q303,1036 306,1038 Q308,1040 326,1044 Q343,1048 345,1050 Q347,1051 358,1054 Q370,1058 385,1060 Q400,1062 408,1064 Q415,1066 418,1068 Q422,1070 426,1070 Q430,1070 431,1071 Q432,1072 436,1072 Q440,1073 441,1074 Q442,1075 450,1076 Q458,1076 484,1075 Q509,1074 518,1075 Q526,1076 535,1079 Q544,1082 553,1088 Q562,1093 562,1095 Q562,1097 564,1095 Q565,1093 575,1092 Q585,1092 587,1090 Q589,1088 591,1088 Q593,1087 596,1089 Q599,1091 600,1090 Q600,1089 599,1090 Q598,1090 596,1088 Q594,1086 596,1082 Q599,1079 603,1076 Q607,1072 608,1070 Q608,1068 611,1064 Q614,1061 619,1059 Q624,1057 624,1069 Q624,1081 622,1090 Q620,1099 616,1102 Q612,1106 614,1106 Q616,1105 618,1103 Q620,1101 622,1103 Q624,1105 627,1106 Q630,1106 628,1105 Q625,1104 623,1102 Q621,1100 621,1098 Q621,1097 625,1096 Q629,1096 626,1095 Q622,1094 623,1088 Q624,1083 625,1082 Q626,1081 630,1081 Q633,1081 629,1080 Q625,1079 625,1067 Q625,1055 628,1049 Q631,1043 628,1049 Q624,1055 618,1058 Q613,1060 610,1064 Q607,1067 606,1069 Q606,1071 600,1078 Q594,1084 592,1082 Q591,1080 590,1080 Q589,1081 590,1083 Q592,1085 592,1086 Q591,1087 590,1087 Q588,1087 586,1089 Q584,1091 574,1092 Q563,1092 554,1086 Q545,1081 536,1078 Q527,1075 518,1074 Q510,1073 485,1074 Q460,1074 459,1072 Q458,1069 458,1072 Q457,1075 452,1075 Q448,1075 440,1073 Q433,1071 432,1070 Q431,1069 427,1069 Q423,1069 420,1067 Q416,1065 408,1063 Q401,1061 386,1059 Q371,1057 360,1054 Q348,1050 346,1048 Q344,1047 326,1043 Q309,1039 306,1037 Q304,1035 302,1035 Q300,1035 288,1030 Q276,1026 276,1022 Q276,1019 274,1022 Q272,1024 268,1021 Q264,1018 264,1014 Q264,1011 267,1010 Q270,1010 268,1009 Q265,1008 265,1004 Q265,1001 268,996 Q270,992 270,990 Q270,988 272,986 Q274,983 275,971 Q276,959 278,956 Q279,952 280,951 Q282,950 282,948 Q282,947 286,942 Q291,937 291,936 Q291,935 298,928 Q306,921 308,916 Q310,911 308,904 Q306,896 306,876 Q305,856 304,850 Q302,843 301,830 Q300,818 300,801 Q301,784 302,774 Q304,764 306,763 Q307,762 308,760 Q309,757 320,747 Q331,737 338,734 Q346,731 347,734 Q348,738 348,734 Q348,731 353,728 Q358,726 360,724 Q362,722 362,720 Q363,718 366,720 Q369,721 368,719 Q366,717 366,716 Q366,714 370,710 Q374,705 376,705 Q377,705 379,706 Q381,708 380,706 Q378,703 381,700 Q384,698 386,698 Q387,697 390,700 Q393,703 394,703 Q395,703 392,700 Q388,696 390,694 Q392,692 395,694 Q398,696 396,694 Q393,691 402,682 Q410,674 410,672 Q411,670 408,666 Q404,661 400,660 Q396,658 391,654 Q386,651 384,651 Q383,651 382,648 Q381,644 382,642 Q384,639 384,634 Q385,630 389,624 Q393,619 393,618 Q393,616 398,610 Q403,604 406,604 Q408,603 409,602 T410,600"/>
    <path d="M500,488 Q499,488 498,488 Q498,489 498,490 Q498,492 498,492 Q497,493 497,496 Q497,498 498,498 Q498,499 498,500 Q498,502 498,502 Q497,503 496,503 Q495,503 494,502 Q494,502 490,502 Q486,502 486,502 Q485,501 482,501 Q478,501 478,502 Q477,502 474,502 Q471,502 470,502 Q470,503 466,503 Q462,503 462,504 Q462,504 466,504 Q471,504 472,504 Q472,503 475,503 Q478,503 478,502 Q479,502 482,502 Q484,502 484,502 Q485,503 489,503 Q493,503 494,504 Q494,504 496,504 Q497,504 498,504 Q498,505 498,512 Q498,518 498,518 Q499,519 499,522 Q499,526 498,526 Q498,527 498,530 Q498,533 498,534 Q497,534 497,534 Q497,535 496,536 Q496,536 496,536 Q496,537 496,537 Q497,537 498,536 Q498,536 498,536 Q498,535 498,534 Q499,534 499,531 Q499,528 500,528 Q500,527 500,522 Q500,518 500,518 Q499,517 499,510 Q499,504 500,504 Q500,503 506,503 Q512,503 512,502 Q513,502 515,502 Q517,502 518,502 Q518,501 520,501 Q522,501 522,500 Q523,500 524,500 Q526,500 526,500 Q526,499 524,499 Q522,499 522,500 Q521,500 519,500 Q517,500 516,500 Q516,501 514,501 Q512,501 512,502 Q511,502 506,502 Q500,502 500,502 Q499,501 499,500 Q499,498 498,498 Q498,497 498,496 Q498,494 498,494 Q499,493 499,492 Q499,490 500,490 T500,489"/>
    <path d="M543,487 Q541,487 540,488 Q540,488 540,489 Q540,490 540,490 Q539,491 539,492 Q539,493 538,494 Q538,494 538,496 Q538,497 538,498 Q537,498 537,498 Q537,499 536,500 Q536,500 536,501 Q536,502 536,502 Q535,503 535,504 Q535,504 534,504 Q534,505 534,522 Q534,539 534,540 Q535,540 535,543 Q535,546 534,546 Q534,547 534,548 Q534,548 534,548 Q533,549 533,551 Q533,553 532,554 Q532,554 532,554 Q532,555 530,556 Q529,558 529,558 Q529,559 528,560 Q527,561 526,561 Q525,561 524,560 Q524,560 522,560 Q519,560 518,559 Q517,558 516,558 Q516,558 514,556 Q512,554 511,554 Q510,554 509,553 Q508,552 508,552 Q507,552 506,551 Q505,550 504,550 Q503,550 502,550 Q502,549 498,549 Q494,549 494,550 Q493,550 492,550 Q492,550 492,550 Q492,551 493,551 Q494,551 494,550 Q495,550 498,550 Q501,550 502,550 Q502,551 503,551 Q504,551 505,552 Q506,553 506,553 Q507,553 508,554 Q509,555 510,555 Q511,555 513,557 Q515,559 516,559 Q516,559 517,560 Q518,561 520,561 Q523,561 524,562 Q524,562 526,562 Q528,562 529,561 Q530,560 530,560 Q530,559 532,558 Q533,556 533,556 Q533,555 534,554 Q534,554 534,552 Q534,550 534,550 Q535,549 535,548 Q535,548 536,548 Q536,547 536,543 Q536,539 536,538 Q535,538 535,522 Q535,506 536,506 Q536,505 536,504 Q536,504 536,504 Q537,503 537,502 Q537,501 538,500 Q538,500 538,500 Q538,499 538,498 Q539,498 539,496 Q539,495 540,494 Q540,494 540,493 Q540,492 540,492 Q541,491 541,490 Q541,489 542,488 Q542,488 542,488 T543,488"/>
    <path d="M978,486 Q978,487 996,487 Q1013,487 1013,486 T1013,486"/>
    <path d="M573,486 Q599,488 661,488 Q723,487 728,488 Q734,489 738,498 Q741,508 740,514 Q740,521 741,528 Q742,536 742,544 Q742,551 738,552 Q735,553 738,554 Q742,554 744,565 Q745,576 748,581 Q752,586 752,589 Q753,592 757,599 Q761,606 764,618 Q767,631 770,635 Q772,639 773,644 Q774,650 772,651 Q769,652 771,652 Q773,652 774,654 Q776,656 776,670 Q777,683 776,685 Q775,687 772,685 Q770,683 769,670 Q768,658 767,656 Q766,653 768,668 Q769,684 772,686 Q775,689 774,693 Q774,697 772,698 Q769,699 770,700 Q771,701 770,702 Q769,703 769,708 Q769,712 772,716 Q774,721 774,720 Q775,718 772,714 Q770,709 773,708 Q776,707 786,714 Q796,721 818,725 Q841,729 856,736 Q872,743 886,747 Q901,751 922,762 Q942,772 948,776 Q955,781 971,810 Q987,838 990,850 Q994,863 998,872 Q1003,880 1006,891 Q1009,902 1012,906 Q1016,910 1028,920 Q1041,929 1044,933 Q1047,937 1047,939 Q1047,941 1044,942 Q1042,943 1044,943 Q1047,943 1048,946 Q1050,948 1050,955 Q1049,962 1046,974 Q1044,985 1040,992 Q1036,999 1036,1010 Q1035,1021 1038,1038 Q1042,1054 1042,1061 Q1041,1068 1039,1072 Q1037,1077 1028,1086 Q1020,1095 1016,1094 Q1013,1092 1016,1094 Q1018,1096 1018,1097 Q1018,1098 1014,1102 Q1009,1106 1012,1105 Q1014,1104 1026,1091 Q1038,1078 1040,1074 Q1042,1069 1042,1061 Q1043,1053 1040,1036 Q1036,1020 1036,1013 Q1036,1006 1038,1000 Q1040,994 1041,993 Q1042,992 1045,993 Q1048,994 1046,992 Q1043,990 1044,986 Q1046,982 1046,979 Q1046,976 1047,975 Q1048,974 1050,960 Q1051,947 1050,942 Q1048,936 1045,932 Q1042,928 1030,918 Q1017,909 1014,905 Q1010,901 1007,890 Q1004,879 1000,870 Q995,862 993,853 Q991,844 976,816 Q962,789 958,784 Q954,778 952,778 Q951,778 947,774 Q943,771 922,760 Q902,750 888,746 Q873,742 858,735 Q842,728 820,724 Q797,720 787,713 Q777,706 777,703 Q777,700 776,699 Q775,698 776,691 Q778,684 778,671 Q777,658 780,656 Q782,655 780,656 Q778,656 776,654 Q775,653 775,651 Q775,649 777,647 Q779,645 776,646 Q774,646 774,642 Q773,638 770,634 Q768,630 768,628 Q767,625 768,624 Q770,622 772,622 Q775,621 773,620 Q771,620 769,622 Q767,623 766,618 Q765,614 762,606 Q758,598 760,596 Q762,593 760,594 Q757,595 756,594 Q755,593 754,589 Q753,585 750,580 Q746,575 744,568 Q743,562 746,561 Q750,560 746,560 Q743,559 742,533 Q742,507 740,498 Q737,490 738,488 Q740,487 789,488 Q838,488 848,487 Q859,486 799,486 Q739,486 738,488 Q736,489 730,488 T724,486"/>
    <path d="M16,484 Q16,485 18,485 Q21,485 22,486 Q22,486 22,486 Q23,486 24,486 Q24,487 28,487 Q31,487 31,486 Q31,486 28,486 Q25,486 24,485 Q23,484 23,483 Q23,482 22,482 Q22,482 22,482 Q22,483 22,484 T21,484"/>
    <path d="M141,476 Q141,477 148,477 Q154,477 154,476 Q155,476 172,476 Q189,476 190,476 Q190,477 204,477 Q218,477 218,476 Q218,476 204,476 Q191,476 190,476 Q190,475 172,475 Q154,475 154,476 T153,476"/>
    <path d="M965,476 Q958,476 958,476 Q957,475 952,475 Q946,475 946,474 Q945,474 944,474 Q943,474 942,474 Q942,475 914,475 Q886,475 886,476 Q885,476 882,476 Q879,476 879,476 Q879,477 882,477 Q886,477 886,476 Q887,476 915,476 Q943,476 944,476 Q944,475 944,476 Q945,476 950,476 Q956,476 956,476 Q957,477 961,477 T965,477"/>
    <path d="M499,464 Q499,466 500,466 Q500,467 500,468 Q500,468 500,468 Q499,469 499,471 Q499,473 498,474 Q498,474 498,474 Q497,474 496,475 Q495,476 495,476 Q495,477 496,477 Q496,477 497,476 Q498,475 499,475 Q500,475 501,476 Q502,477 504,477 Q505,477 505,476 Q505,476 504,476 Q503,476 502,474 Q500,473 500,472 Q500,470 500,470 Q501,469 501,468 Q501,466 500,466 Q500,465 500,464 T500,464"/>
    <path d="M1041,433 Q1041,435 1044,438 Q1048,442 1048,442 Q1048,443 1048,444 Q1047,444 1047,444 Q1047,445 1046,446 Q1046,446 1046,446 Q1045,446 1044,448 Q1042,449 1042,450 Q1042,450 1041,451 Q1040,452 1040,452 Q1040,453 1040,454 Q1039,454 1039,455 Q1039,456 1040,456 Q1040,456 1040,456 Q1040,455 1040,454 Q1041,454 1041,454 Q1041,453 1042,452 Q1043,451 1043,450 Q1043,450 1044,448 Q1046,447 1046,447 Q1047,447 1048,446 Q1048,446 1048,446 Q1048,445 1049,444 Q1050,443 1050,443 Q1051,443 1054,446 Q1058,450 1058,450 Q1059,450 1060,451 Q1061,452 1062,452 Q1062,452 1062,452 Q1062,451 1061,450 Q1060,449 1060,449 Q1059,449 1056,446 Q1053,443 1053,442 Q1053,442 1056,440 Q1058,437 1058,437 Q1059,437 1060,436 Q1061,435 1061,434 Q1061,434 1060,434 Q1060,434 1059,435 Q1058,436 1058,436 Q1057,436 1054,439 Q1051,442 1050,442 Q1050,442 1046,438 Q1042,434 1042,434 T1042,433"/>
    <path d="M247,393 Q246,393 246,397 Q246,401 245,402 Q244,403 244,405 Q244,407 244,408 Q243,408 243,408 Q243,409 242,410 Q240,412 240,413 Q240,414 240,414 Q239,415 238,415 Q238,415 237,416 Q236,417 236,417 Q235,417 234,418 Q234,418 234,418 Q233,418 232,418 Q232,419 230,419 Q229,419 229,420 Q229,420 231,420 Q233,420 234,420 Q234,419 234,419 Q235,419 236,418 Q236,418 236,418 Q237,418 238,417 Q239,416 240,416 Q240,416 240,416 Q241,415 241,414 Q241,413 242,412 Q244,410 244,410 Q244,409 244,408 Q245,408 245,406 Q245,404 246,403 T247,402"/>
    <path d="M1024,362 Q1023,363 1023,364 Q1023,364 1024,364 Q1026,364 1030,368 Q1033,371 1030,374 Q1028,376 1028,376 Q1028,377 1028,378 Q1027,378 1027,380 Q1027,382 1026,382 Q1026,383 1026,384 Q1026,385 1026,386 Q1027,386 1027,386 Q1027,387 1028,387 Q1028,387 1028,386 Q1028,385 1028,384 Q1027,384 1028,384 Q1028,383 1028,381 Q1028,379 1028,378 Q1029,378 1029,378 Q1029,377 1031,375 Q1033,373 1034,373 Q1034,373 1036,375 Q1038,377 1038,378 Q1038,379 1040,381 Q1042,383 1042,384 Q1042,384 1042,384 Q1043,385 1043,386 Q1043,386 1044,386 Q1044,387 1044,388 Q1044,388 1044,388 Q1045,389 1045,390 Q1045,390 1046,390 Q1046,391 1046,391 Q1047,391 1047,390 Q1047,390 1046,390 Q1046,389 1046,388 Q1046,388 1046,388 Q1045,387 1045,386 Q1045,386 1044,386 Q1044,385 1044,384 Q1044,384 1044,384 Q1043,383 1043,382 Q1043,382 1041,380 Q1039,378 1039,377 Q1039,376 1036,374 Q1034,371 1036,369 Q1038,367 1038,367 Q1039,367 1040,366 Q1041,365 1042,365 Q1042,365 1043,364 Q1044,363 1044,362 Q1044,362 1044,362 Q1043,362 1042,363 Q1041,364 1040,364 Q1040,364 1039,365 Q1038,366 1038,366 Q1037,366 1036,368 Q1034,369 1034,369 Q1033,369 1030,366 Q1027,363 1026,363 Q1026,363 1026,362 T1025,362"/>
    <path d="M92,469 Q102,467 102,472 Q102,476 103,471 Q104,466 106,465 Q107,464 122,465 Q136,466 136,470 Q135,473 133,474 Q131,475 132,476 Q134,476 136,471 Q139,466 170,466 Q200,465 201,466 Q202,468 202,466 Q203,465 208,465 Q213,465 214,464 Q216,462 230,462 Q245,462 248,461 Q252,460 258,460 Q265,460 268,462 Q271,465 269,463 Q267,461 268,460 Q269,458 270,459 Q271,460 294,460 Q317,461 318,462 Q318,463 316,466 Q313,468 316,466 Q320,463 322,463 Q324,463 324,466 Q325,468 324,470 Q323,472 319,474 Q315,476 316,476 Q318,477 321,475 Q324,473 325,468 Q326,464 332,459 Q337,454 340,453 Q344,452 346,456 Q347,460 349,462 Q351,463 350,461 Q348,459 347,454 Q346,449 352,446 Q359,443 361,444 Q363,446 362,444 Q361,443 362,442 Q362,440 368,446 Q375,452 370,446 Q365,440 366,438 Q368,437 372,436 Q377,435 382,432 Q388,429 392,432 Q397,436 398,438 Q399,441 400,440 Q400,440 399,438 Q398,435 392,431 Q387,427 386,424 Q384,420 377,412 Q370,405 366,404 Q362,402 361,398 Q360,395 342,378 Q324,361 335,373 Q346,385 352,390 Q359,396 360,413 Q360,430 360,430 Q359,431 356,428 Q354,426 350,420 Q347,413 344,412 Q341,410 339,404 Q337,397 332,388 Q327,378 326,377 Q324,376 320,368 Q316,360 313,358 Q310,355 308,348 Q307,340 298,340 Q290,339 288,338 Q287,337 288,332 Q290,327 290,326 Q289,324 287,331 Q285,338 278,337 Q272,336 266,336 Q259,337 271,338 Q283,339 282,356 Q280,372 278,374 Q277,375 270,375 Q262,375 256,376 Q251,378 248,378 Q246,377 248,374 Q250,370 252,370 Q254,370 252,369 Q250,368 252,363 Q253,358 253,352 Q253,346 251,342 Q249,338 250,342 Q252,347 252,355 Q251,363 246,373 Q241,383 242,384 Q242,384 244,382 Q246,379 254,378 Q263,376 270,376 Q278,377 277,386 Q276,394 275,397 Q274,400 272,400 Q270,401 272,402 Q274,403 274,415 Q273,427 260,428 Q247,428 260,429 Q272,430 272,434 Q272,438 270,444 Q268,451 268,454 Q269,456 268,458 Q266,459 264,459 Q261,459 260,457 Q259,455 258,457 Q258,459 256,459 Q253,459 252,457 Q251,455 250,458 Q250,460 240,460 Q230,461 230,460 Q229,458 232,450 Q236,443 236,440 Q235,438 232,449 Q228,460 223,461 Q218,462 218,458 Q218,455 220,450 Q223,446 226,446 Q228,447 226,446 Q224,445 224,438 Q224,432 223,431 Q222,430 222,425 Q222,420 224,416 Q226,413 226,410 Q226,407 224,400 Q221,394 218,392 Q214,390 214,385 Q215,380 216,378 Q218,375 218,365 Q217,355 215,353 Q213,351 202,350 Q192,349 193,336 Q194,323 193,324 Q192,326 191,338 Q190,351 180,351 Q169,351 164,353 Q158,355 159,364 Q160,374 158,378 Q157,381 155,380 Q153,378 154,382 Q156,385 152,392 Q148,400 148,404 Q147,409 137,405 Q127,401 116,400 Q106,398 116,400 Q126,402 136,406 Q147,411 146,416 Q145,421 142,426 Q139,432 139,435 Q139,438 143,428 Q147,419 148,410 Q149,401 150,400 Q152,398 156,386 Q161,375 161,368 Q161,361 160,358 Q159,356 164,354 Q170,352 178,352 Q187,351 188,352 Q189,353 188,374 Q187,395 180,396 Q173,396 167,395 Q161,394 162,395 Q162,396 174,397 Q185,398 185,401 Q185,404 182,404 Q179,405 182,406 Q185,407 185,418 Q185,429 172,430 Q158,432 154,434 Q151,435 168,433 Q185,431 186,447 Q188,463 187,464 Q186,465 173,464 Q160,464 152,465 Q145,466 144,465 Q143,464 145,458 Q147,453 147,446 Q147,440 146,446 Q146,452 144,458 Q141,465 128,464 Q114,463 114,458 Q113,452 114,447 Q115,442 120,432 Q125,423 125,418 Q125,414 124,412 Q122,410 123,416 Q124,422 119,432 Q114,441 113,452 T112,462"/>
    <path d="M983,281 Q982,282 982,282 Q982,283 984,285 Q986,287 986,287 Q987,287 988,288 Q988,288 988,288 Q989,288 992,291 Q995,294 995,294 Q995,295 994,296 Q992,298 992,298 Q991,298 990,299 Q989,300 989,300 Q989,301 988,302 Q988,302 988,302 Q988,303 986,304 Q985,306 985,306 Q985,307 984,308 Q984,308 984,309 Q984,310 984,310 Q983,311 983,312 Q983,313 984,313 Q984,313 984,312 Q984,312 984,312 Q985,311 985,310 Q985,309 986,308 Q986,308 986,308 Q986,307 988,306 Q989,304 989,304 Q989,303 990,302 Q990,302 990,302 Q990,301 991,300 Q992,299 992,299 Q993,299 994,298 Q995,297 1000,302 Q1004,306 1004,306 Q1004,307 1008,311 Q1012,315 1014,315 Q1015,315 1015,314 Q1015,314 1014,314 Q1013,314 1009,310 Q1005,306 1005,306 Q1005,305 1000,300 Q996,296 996,295 Q996,294 998,292 Q1000,290 1000,290 Q1001,290 1003,288 Q1005,286 1005,286 Q1005,285 1004,285 Q1004,285 1002,287 Q1000,289 1000,289 Q999,289 998,290 Q996,292 996,292 Q995,292 992,290 Q990,287 990,287 Q989,287 988,286 Q988,286 988,286 Q987,286 986,284 Q984,283 984,282 T984,281"/>
    <path d="M853,258 Q852,259 852,260 Q852,260 854,262 Q855,263 855,264 Q855,265 856,266 Q857,267 857,268 Q857,268 854,272 Q850,275 850,276 Q850,276 848,278 Q847,279 847,280 Q847,280 848,280 Q848,280 850,278 Q851,277 851,276 Q851,276 855,272 Q859,268 860,268 Q860,268 862,270 Q863,271 863,272 Q863,272 864,273 Q865,274 865,274 Q865,275 867,277 Q869,279 869,280 Q869,280 870,280 Q870,281 870,282 Q870,282 872,284 Q874,286 874,286 Q875,286 875,286 Q875,285 873,283 Q871,281 871,280 Q871,280 870,280 Q870,279 870,278 Q870,278 868,276 Q866,274 866,274 Q866,273 865,272 Q864,271 864,270 Q864,270 863,269 Q862,268 864,266 Q867,263 868,263 Q868,263 869,262 Q870,261 870,261 Q871,261 871,260 Q871,260 870,260 Q869,260 868,261 Q867,262 866,262 Q866,262 864,264 Q861,267 860,267 Q859,267 858,266 Q856,264 856,263 Q856,262 855,261 Q854,260 854,259 T854,258"/>
    <path d="M917,213 Q917,214 918,214 Q918,214 920,216 Q923,219 923,220 Q923,220 924,221 Q925,222 925,222 Q925,223 922,226 Q918,230 918,230 Q918,231 918,231 Q919,231 923,227 Q927,223 928,223 Q928,223 930,225 Q932,227 932,228 Q932,229 934,231 Q936,233 936,233 Q937,233 938,234 Q938,234 938,236 Q938,237 940,239 Q942,241 942,242 Q942,242 942,242 Q943,243 944,243 Q944,243 944,242 Q944,242 944,242 Q943,241 943,240 Q943,240 941,238 Q939,236 939,234 Q939,233 938,232 Q938,232 938,232 Q937,232 935,230 Q933,228 933,227 Q933,226 932,224 Q930,223 930,222 Q930,222 934,218 Q937,215 938,215 Q938,215 938,214 Q938,214 937,214 Q936,214 932,218 Q928,222 928,222 Q927,222 926,220 Q924,219 924,218 Q924,218 922,216 T919,213"/>
    <path d="M848,182 Q848,185 848,186 Q849,186 849,186 Q849,187 850,188 Q852,190 852,190 Q852,191 854,192 Q855,194 854,195 Q853,196 852,196 Q852,196 852,196 Q851,197 850,197 Q850,197 850,198 Q849,198 848,198 Q848,198 848,198 Q847,197 845,197 Q843,197 842,198 Q841,199 841,200 Q841,200 842,200 Q842,200 843,199 Q844,198 845,198 Q846,198 846,198 Q847,199 847,200 Q847,200 846,200 Q846,201 846,202 Q846,202 846,202 Q845,203 843,203 Q841,203 841,204 Q841,204 844,204 Q846,204 846,204 Q847,203 847,202 Q847,202 849,200 Q851,198 852,198 Q852,198 852,198 Q853,197 854,197 Q854,197 854,196 Q855,196 856,196 Q856,196 858,198 Q859,199 859,200 Q859,201 860,202 Q861,203 861,204 Q861,204 862,206 Q864,207 864,208 Q864,208 864,208 Q865,209 866,209 Q866,209 866,208 Q866,208 866,208 Q865,207 865,206 Q865,206 864,204 Q862,203 862,202 Q862,202 861,201 Q860,200 860,199 Q860,198 858,196 Q857,195 857,194 Q857,194 858,194 Q858,193 860,195 Q862,197 863,197 Q864,197 864,196 Q864,196 864,196 Q863,196 862,195 Q861,194 861,194 Q861,193 862,192 Q862,192 864,192 Q865,192 866,191 Q867,190 868,190 Q869,190 870,190 Q870,189 870,190 Q871,190 872,190 Q872,190 872,190 Q872,189 872,188 Q871,188 870,188 Q869,188 868,188 Q868,189 868,189 Q867,189 866,188 Q864,186 862,186 Q860,186 860,186 Q859,187 859,188 Q859,188 858,188 Q858,189 858,190 Q858,191 857,192 Q856,193 854,192 Q853,190 853,190 Q853,189 852,188 Q850,186 850,186 Q850,185 850,184 Q849,184 849,183 T849,182"/>
    <path d="M598,71 Q596,72 596,80 Q597,89 598,90 Q599,91 602,91 Q605,91 608,96 Q611,101 614,102 Q618,102 619,103 Q620,104 620,106 Q620,108 619,112 Q618,115 616,118 Q615,120 615,122 Q615,123 614,124 Q613,125 612,130 Q610,134 610,136 Q610,138 608,142 Q607,146 606,152 Q606,159 605,160 Q604,161 604,162 Q604,163 602,165 Q600,167 600,168 Q600,169 599,170 Q598,171 598,173 Q597,175 596,176 Q594,178 594,179 Q594,180 592,182 Q591,183 588,188 Q586,193 585,194 Q584,195 582,193 Q579,191 581,194 Q583,196 582,198 Q582,201 578,204 Q575,208 575,214 Q575,220 582,228 Q588,236 588,240 Q589,245 590,246 Q590,246 590,253 Q589,260 588,262 Q586,264 586,266 Q586,267 583,270 Q580,272 579,272 Q578,272 576,273 Q575,274 573,272 Q571,271 572,274 Q574,276 571,280 Q568,283 566,284 Q564,285 562,287 Q561,289 560,289 Q559,289 557,288 Q555,286 556,288 Q558,290 558,292 Q557,294 554,296 Q552,298 552,299 Q552,300 548,304 Q545,308 544,309 Q542,310 540,309 Q539,308 540,310 Q542,312 540,316 Q538,321 538,325 Q538,329 539,330 Q540,331 541,334 Q542,337 546,341 Q550,345 551,348 Q552,350 552,352 Q552,353 550,356 Q548,360 546,361 Q544,362 543,364 Q542,365 537,368 Q532,371 528,375 Q524,379 520,381 Q517,383 514,386 Q512,389 512,390 Q512,392 512,392 Q511,393 511,400 Q511,407 512,408 Q513,409 513,411 Q513,413 514,415 Q516,417 516,418 Q516,420 517,421 Q518,422 518,424 Q519,426 528,432 Q536,437 540,442 Q543,447 543,450 Q543,453 544,454 Q544,455 543,456 Q542,457 538,457 Q535,457 533,456 Q531,454 527,453 Q523,452 522,451 Q521,450 522,448 Q522,445 521,446 Q520,446 520,448 Q520,449 520,450 Q519,450 518,450 Q516,450 516,450 Q515,451 506,451 Q498,451 498,452 Q497,452 490,452 Q484,453 480,455 Q477,457 475,457 Q473,457 472,458 Q472,458 470,458 Q469,457 469,455 Q469,453 468,453 Q468,453 468,456 Q468,459 466,460 Q465,461 462,461 Q460,461 459,463 Q458,465 456,466 Q454,468 452,470 Q450,473 447,474 Q444,476 443,476 Q442,476 442,476 Q442,477 444,477 Q445,477 448,476 Q451,474 452,472 Q453,471 456,468 Q459,466 460,464 Q461,462 464,462 Q466,462 468,460 Q470,459 474,458 Q478,458 482,456 Q485,454 492,454 Q498,453 498,452 Q499,452 508,452 Q516,452 516,452 Q517,451 518,451 Q520,451 521,452 Q522,453 526,454 Q530,455 532,456 Q534,458 537,458 Q540,458 540,458 Q541,459 540,461 Q540,463 541,462 Q542,462 542,460 Q542,459 544,458 Q545,456 544,451 Q544,446 543,444 Q542,442 539,438 Q536,435 534,434 Q533,434 532,432 Q530,431 525,428 Q520,425 520,423 Q519,421 520,420 Q522,420 522,419 Q523,418 520,419 Q518,420 518,420 Q517,419 517,418 Q517,416 516,414 Q514,412 514,410 Q514,408 513,407 Q512,406 512,404 Q512,401 512,400 Q513,400 516,400 Q518,400 518,400 Q518,399 516,399 Q513,399 512,398 Q512,398 512,396 Q512,394 512,394 Q513,393 513,392 Q513,390 516,387 Q518,384 522,382 Q525,380 529,376 Q533,372 538,369 Q543,366 544,364 Q545,363 546,362 Q548,361 551,362 Q554,363 554,362 Q554,362 552,360 Q550,359 552,356 Q553,354 552,350 Q552,346 548,341 Q543,336 542,333 Q541,330 540,329 Q539,328 539,325 Q539,322 540,319 Q541,316 542,314 Q543,313 543,312 Q543,311 546,309 Q548,307 550,304 Q553,301 553,300 Q553,299 556,297 Q558,295 558,294 Q559,292 560,291 Q562,290 564,288 Q565,286 566,286 Q568,285 570,283 Q571,281 573,282 Q575,284 576,284 Q578,284 578,284 Q578,283 577,283 Q576,283 574,281 Q573,279 574,277 Q576,275 578,274 Q579,273 580,273 Q581,273 584,270 Q587,268 587,266 Q587,265 588,263 Q590,261 590,253 Q591,245 590,244 Q590,244 590,240 Q589,235 582,227 Q576,219 576,214 Q576,209 580,206 Q583,202 583,201 Q583,200 584,199 Q585,198 586,200 Q588,201 590,201 Q591,201 591,200 Q591,200 590,200 Q589,200 587,198 Q585,196 588,192 Q590,189 591,186 Q592,184 594,182 Q595,181 595,180 Q595,179 596,178 Q598,176 598,175 Q598,174 600,172 Q601,170 601,169 Q601,168 603,166 Q605,164 605,163 Q605,162 606,161 Q607,160 608,154 Q608,147 611,136 Q614,126 614,126 Q615,125 616,126 Q616,126 618,126 Q620,126 620,126 Q620,125 618,125 Q617,125 616,124 Q616,124 616,122 Q616,121 617,120 Q618,118 620,118 Q623,118 623,118 Q623,117 622,117 Q620,117 620,116 Q619,116 620,112 Q621,109 621,106 Q621,103 620,102 Q619,101 617,101 Q615,101 612,100 Q610,98 608,94 Q606,90 606,88 Q607,86 606,86 Q605,87 604,88 Q604,90 602,90 Q600,90 599,89 Q598,88 598,82 Q598,77 598,76 T597,76"/>
    <path d="M607,54 Q605,58 604,58 Q602,58 600,60 Q599,61 598,62 Q597,62 596,62 Q594,62 594,62 Q594,63 596,63 Q598,63 600,61 Q603,59 606,59 Q609,59 610,60 Q612,61 615,61 Q618,61 619,62 Q620,62 626,68 Q633,75 634,75 Q634,75 636,78 Q639,80 640,80 Q640,80 644,84 Q647,87 648,88 Q650,88 654,91 Q657,94 658,94 Q658,94 668,104 Q678,114 678,114 Q678,115 680,118 Q683,120 683,121 Q683,122 688,128 Q692,135 692,136 Q692,137 694,140 Q695,142 696,144 Q696,147 698,150 Q699,152 699,154 Q699,155 700,158 Q702,160 702,163 Q703,166 704,168 Q705,169 705,170 Q705,171 706,173 Q708,175 708,177 Q708,179 708,180 Q709,180 709,182 Q709,183 710,184 Q710,184 710,190 Q710,196 710,196 Q711,197 711,212 Q711,228 710,228 Q710,229 710,234 Q709,239 708,240 Q708,240 708,243 Q707,246 706,246 Q706,247 706,262 Q706,276 706,276 Q707,277 707,279 Q707,281 708,282 Q709,283 709,289 Q709,295 710,296 Q710,296 710,299 Q710,302 710,302 Q711,303 711,304 Q711,306 712,308 Q713,309 713,311 Q713,313 714,314 Q714,314 714,316 Q714,317 714,318 Q715,318 716,322 Q716,325 717,326 Q718,328 718,331 Q718,334 718,334 Q719,335 719,336 Q719,337 720,338 Q720,338 720,340 Q721,342 722,344 Q724,345 724,349 Q724,353 724,354 Q725,354 725,356 Q725,358 726,358 Q726,359 726,361 Q726,363 726,364 Q727,364 727,366 Q727,368 728,368 Q728,369 728,372 Q728,375 728,376 Q729,376 729,378 Q729,380 730,382 Q731,383 732,387 Q732,391 734,394 Q736,396 736,398 Q737,400 738,400 Q738,401 738,402 Q738,403 738,404 Q739,404 739,405 Q739,406 740,406 Q740,407 740,412 Q739,417 738,419 Q737,421 737,424 Q737,427 736,428 Q736,428 736,429 Q736,430 736,430 Q735,431 735,433 Q735,435 734,436 Q734,436 734,437 Q734,438 734,438 Q733,439 733,440 Q733,441 732,443 Q731,445 731,448 Q731,450 730,450 Q730,451 730,453 Q730,455 730,456 Q729,456 729,458 Q729,461 728,462 Q728,462 725,462 Q722,462 722,462 Q722,463 725,463 Q728,463 728,464 Q729,464 729,468 Q729,472 728,472 Q728,473 728,473 Q727,473 726,472 Q725,471 724,471 Q724,471 724,472 Q724,472 725,473 Q726,474 729,474 Q732,474 732,474 Q732,473 731,472 Q730,472 730,464 Q730,457 730,456 Q731,456 731,454 Q731,452 732,452 Q732,451 732,448 Q732,446 732,446 Q733,445 733,444 Q733,443 734,442 Q734,442 734,441 Q734,440 735,438 Q736,436 736,434 Q736,432 737,430 Q738,428 738,425 Q738,422 739,420 Q740,418 740,412 Q741,406 740,406 Q740,405 739,401 Q738,397 736,394 Q733,390 732,386 Q732,382 731,380 Q730,379 730,377 Q730,375 730,374 Q729,374 729,371 Q729,368 728,368 Q728,367 728,365 Q728,363 728,362 Q727,362 727,360 Q727,358 726,358 Q726,357 726,355 Q726,353 726,352 Q725,352 725,348 Q725,344 724,342 Q722,341 722,339 Q721,337 720,336 Q720,336 720,335 Q720,334 720,334 Q719,333 719,330 Q719,327 718,326 Q717,324 717,322 Q717,321 716,320 Q716,320 716,318 Q716,317 716,316 Q715,316 715,314 Q715,313 714,312 Q714,312 714,310 Q714,308 713,306 Q712,305 712,304 Q712,302 712,302 Q711,301 711,298 Q711,295 710,294 Q710,294 710,288 Q710,282 709,281 Q708,280 708,278 Q708,276 708,276 Q707,275 707,262 Q707,248 708,248 Q708,247 708,246 Q708,244 709,242 Q710,240 710,235 Q711,230 712,230 Q712,229 712,212 Q712,196 712,196 Q711,195 711,189 Q711,183 710,182 Q710,182 710,180 Q710,179 710,178 Q709,178 709,176 Q709,174 708,172 Q706,170 706,169 Q706,168 704,165 Q703,162 703,160 Q703,159 702,156 Q700,154 700,152 Q700,151 698,148 Q697,146 697,145 Q697,144 695,140 Q693,136 693,135 Q693,134 692,133 Q691,132 690,130 Q690,129 688,128 Q687,126 686,124 Q686,123 685,122 Q684,121 684,120 Q684,119 682,116 Q679,114 679,114 Q679,113 669,103 Q659,93 658,93 Q658,93 654,90 Q651,87 650,86 Q648,86 644,82 Q641,79 640,79 Q640,79 638,76 Q635,74 634,74 Q634,74 627,67 Q620,60 620,60 Q620,59 619,60 Q618,60 616,60 Q613,60 612,59 Q610,58 609,58 Q608,58 608,58 Q607,57 608,56 T608,54"/>
    <path d="M425,51 Q425,53 426,54 Q426,54 426,54 Q426,55 426,56 Q425,56 424,56 Q424,56 422,58 Q420,60 420,61 Q420,62 420,62 Q419,63 419,64 Q419,65 418,66 Q418,66 418,69 Q418,72 418,72 Q419,73 419,74 Q419,75 422,78 Q426,82 426,82 Q426,83 426,84 Q427,84 428,84 Q430,84 430,84 Q431,83 431,82 Q431,82 430,82 Q430,82 430,82 Q429,83 428,83 Q428,83 428,82 Q427,82 427,82 Q427,81 426,80 Q425,79 425,78 Q425,78 426,76 Q428,75 429,75 Q430,75 431,74 Q432,73 432,72 Q432,72 433,71 Q434,70 434,70 Q434,69 434,68 Q435,68 435,67 Q435,66 436,66 Q436,65 436,65 Q437,65 437,64 Q437,64 436,64 Q436,64 435,63 Q434,62 434,61 Q434,60 433,59 Q432,58 432,58 Q431,58 430,58 Q430,57 430,57 Q429,57 428,56 Q427,55 427,54 Q427,53 426,52 Q426,52 426,52 T426,51"/>
    <path d="M480,48 Q479,48 478,48 Q478,49 478,50 Q478,52 478,52 Q477,53 477,54 Q477,54 476,55 Q475,56 474,56 Q474,56 474,56 Q473,57 472,57 Q472,57 472,58 Q471,58 470,58 Q470,58 469,59 Q468,60 468,61 Q468,62 468,62 Q467,63 467,64 Q467,65 466,66 Q466,66 466,66 Q465,65 464,65 Q464,65 464,66 Q464,66 465,67 Q466,68 466,70 Q466,71 466,72 Q467,72 467,72 Q467,73 468,74 Q468,74 468,76 Q468,78 468,78 Q469,79 470,79 Q470,79 470,80 Q471,80 472,80 Q473,80 474,79 Q475,78 476,78 Q476,78 478,76 Q479,75 479,74 Q479,74 480,74 Q480,73 480,68 Q480,64 480,64 Q481,63 481,62 Q481,62 482,62 Q482,61 483,61 Q484,61 484,62 Q485,62 486,62 Q486,62 486,62 Q486,61 486,60 Q485,60 483,60 Q481,60 480,60 Q480,59 480,58 Q480,56 482,54 Q483,53 484,53 Q484,53 484,52 Q485,52 486,52 Q486,52 486,52 Q486,51 485,51 Q484,51 484,52 Q483,52 482,52 Q482,52 481,53 Q480,54 480,54 Q479,53 479,52 Q479,50 480,50 T480,49"/>
    <path d="M1013,45 Q1012,46 1012,46 Q1012,47 1012,48 Q1011,48 1010,48 Q1010,48 1010,48 Q1010,49 1011,49 Q1012,49 1012,50 Q1013,50 1013,52 Q1013,55 1014,56 Q1015,58 1015,59 Q1015,60 1016,61 Q1017,62 1017,64 Q1017,65 1018,66 Q1018,66 1018,69 Q1018,72 1018,72 Q1019,73 1019,78 Q1019,83 1018,84 Q1018,84 1018,88 Q1018,92 1018,92 Q1017,93 1017,94 Q1017,96 1016,96 Q1016,97 1016,100 Q1016,104 1016,104 Q1017,105 1017,106 Q1017,107 1018,108 Q1019,109 1020,110 Q1020,112 1022,114 Q1023,115 1024,115 Q1025,115 1026,116 Q1026,116 1026,116 Q1027,116 1030,118 Q1032,120 1032,120 Q1031,121 1031,122 Q1031,123 1030,124 Q1030,124 1030,126 Q1030,129 1028,130 Q1027,131 1026,132 Q1026,134 1025,135 Q1024,136 1021,135 Q1018,134 1018,134 Q1018,135 1018,136 Q1019,136 1020,136 Q1021,136 1022,136 Q1022,137 1022,138 Q1022,139 1022,140 Q1021,140 1020,142 Q1020,143 1019,144 Q1018,145 1018,146 Q1018,147 1015,150 Q1012,153 1012,154 Q1011,156 1010,157 Q1009,158 1008,158 Q1007,158 1006,159 Q1004,160 1003,160 Q1002,160 1002,160 Q1002,161 1004,161 Q1005,161 1006,160 Q1008,159 1008,160 Q1009,160 1009,162 Q1009,163 1010,164 Q1010,164 1010,166 Q1011,167 1010,168 Q1009,169 1008,169 Q1008,169 1008,170 Q1007,170 1007,170 Q1007,171 1008,170 Q1010,170 1012,168 Q1013,167 1014,167 Q1014,167 1014,168 Q1015,168 1016,168 Q1018,168 1018,168 Q1019,169 1024,169 Q1029,169 1030,170 Q1030,170 1030,176 Q1030,183 1030,184 Q1031,184 1031,190 Q1031,195 1032,196 Q1032,196 1032,202 Q1032,208 1032,208 Q1031,209 1031,210 Q1031,211 1032,212 Q1034,214 1034,214 Q1033,215 1033,216 Q1033,216 1032,218 Q1031,219 1029,219 Q1027,219 1026,220 Q1026,220 1024,220 Q1022,220 1022,220 Q1021,221 1019,221 Q1017,221 1016,222 Q1016,222 1015,222 Q1014,222 1014,222 Q1013,221 1012,221 Q1012,221 1012,220 Q1011,220 1011,220 Q1011,219 1010,219 Q1010,219 1010,220 Q1010,221 1012,222 Q1013,223 1015,223 Q1017,223 1018,222 Q1018,222 1020,222 Q1022,222 1022,222 Q1023,221 1025,221 Q1027,221 1028,220 Q1028,220 1030,220 Q1032,220 1032,220 Q1033,219 1033,218 Q1033,218 1034,217 Q1035,216 1038,216 Q1042,216 1044,218 Q1047,221 1047,222 Q1047,222 1048,222 Q1048,223 1048,224 Q1048,225 1048,225 Q1049,225 1049,224 Q1049,222 1048,222 Q1048,221 1048,220 Q1048,220 1046,218 Q1044,216 1045,215 Q1046,214 1048,214 Q1049,214 1050,214 Q1050,213 1052,213 Q1054,213 1054,212 Q1055,212 1056,212 Q1057,212 1059,210 Q1061,208 1062,208 Q1064,208 1066,210 Q1068,212 1068,212 Q1069,212 1069,212 Q1069,211 1067,209 Q1065,207 1066,206 Q1066,206 1066,206 Q1067,206 1070,204 Q1072,201 1074,200 Q1075,200 1076,198 Q1078,197 1078,197 Q1079,197 1080,196 Q1080,196 1080,196 Q1081,196 1082,195 Q1083,194 1084,194 Q1084,194 1084,194 Q1085,193 1085,192 Q1085,192 1086,192 Q1086,191 1086,191 Q1087,191 1090,188 Q1092,186 1092,186 Q1092,185 1094,184 Q1095,182 1095,182 Q1095,181 1096,180 Q1097,179 1098,179 Q1098,179 1098,178 Q1099,178 1099,177 Q1099,176 1100,174 Q1102,173 1102,172 Q1103,170 1105,168 Q1107,165 1107,164 Q1107,163 1108,162 Q1109,160 1109,159 Q1109,158 1110,157 Q1111,156 1111,156 Q1111,155 1112,154 Q1112,154 1112,153 Q1112,152 1112,152 Q1113,151 1113,149 Q1113,147 1114,146 Q1114,146 1114,145 Q1114,144 1114,144 Q1115,143 1115,141 Q1115,139 1114,138 Q1114,138 1114,132 Q1114,127 1114,126 Q1115,126 1118,126 Q1121,126 1121,126 Q1121,125 1118,125 Q1115,125 1114,124 Q1114,124 1114,122 Q1114,121 1114,120 Q1113,120 1113,118 Q1113,115 1112,114 Q1112,114 1112,112 Q1112,111 1112,110 Q1111,110 1111,109 Q1111,108 1110,107 Q1109,106 1109,104 Q1109,103 1108,102 Q1108,102 1108,101 Q1108,100 1108,100 Q1107,99 1107,98 Q1107,97 1106,96 Q1106,96 1106,94 Q1106,93 1105,92 Q1104,91 1104,91 Q1103,91 1102,90 Q1102,90 1102,90 Q1102,89 1097,84 Q1092,79 1092,79 Q1091,79 1088,77 Q1086,75 1085,75 Q1084,75 1080,72 Q1077,69 1076,69 Q1076,69 1076,68 Q1075,68 1074,68 Q1073,68 1072,68 Q1072,67 1070,66 Q1069,66 1068,65 Q1067,64 1066,64 Q1065,64 1064,63 Q1063,62 1063,62 Q1063,61 1062,60 Q1062,60 1060,60 Q1058,60 1056,59 Q1055,58 1054,58 Q1053,58 1052,58 Q1052,57 1051,57 Q1050,57 1049,56 Q1048,55 1048,55 Q1047,55 1046,54 Q1046,54 1045,54 Q1044,54 1042,53 Q1041,52 1039,52 Q1037,52 1036,51 Q1035,50 1033,50 Q1031,50 1030,50 Q1030,49 1029,49 Q1028,49 1028,48 Q1027,48 1020,48 Q1014,48 1014,48 Q1013,47 1014,46 Q1014,46 1014,46 T1014,45"/>
    <path d="M383,25 Q383,26 386,26 Q390,26 390,26 Q391,27 394,27 Q398,27 398,28 Q399,28 399,34 Q399,40 400,40 Q400,41 400,42 Q400,42 400,42 Q399,43 399,44 Q399,46 398,47 Q397,48 396,48 Q396,48 396,48 Q395,47 394,47 Q393,47 392,48 Q392,48 392,48 Q392,49 392,49 Q393,49 394,48 Q394,48 394,48 Q395,49 396,49 Q397,49 398,50 Q398,50 398,51 Q398,52 398,52 Q399,53 399,62 Q399,71 400,72 Q400,72 400,76 Q400,80 400,80 Q401,80 401,76 Q401,71 400,70 Q400,70 400,61 Q400,52 400,52 Q399,51 399,50 Q399,48 400,48 Q400,47 400,46 Q400,45 400,44 Q401,44 402,44 Q403,44 404,44 Q404,43 404,43 Q405,43 406,42 Q406,42 408,42 Q409,42 410,42 Q410,41 411,41 Q412,41 413,42 Q414,43 414,43 Q415,43 415,42 Q415,42 414,41 Q413,40 413,40 Q413,39 414,38 Q414,38 414,36 Q414,35 414,34 Q415,34 415,34 Q415,33 414,32 Q414,32 414,30 Q414,29 413,28 Q412,27 410,27 Q409,27 408,26 Q408,26 400,26 Q392,26 392,26 T391,25"/>
    <path d="M455,21 Q455,23 456,24 Q456,24 456,26 Q456,27 456,28 Q457,28 457,34 Q457,40 456,40 Q456,41 456,45 Q456,49 456,50 Q455,50 455,51 Q455,52 454,52 Q454,53 454,59 Q454,65 454,66 Q453,66 453,66 Q453,67 454,68 Q454,68 454,72 Q454,76 454,76 Q453,77 453,80 Q453,82 454,82 Q454,83 454,86 Q454,90 454,90 Q455,91 455,92 Q455,94 456,94 Q456,95 456,95 Q457,95 457,94 Q457,94 456,94 Q456,93 456,92 Q456,90 456,90 Q455,89 455,86 Q455,82 454,82 Q454,81 454,80 Q454,78 454,78 Q455,77 455,66 Q455,54 456,54 Q456,53 456,52 Q456,51 456,50 Q457,50 457,46 Q457,42 458,42 Q458,41 458,38 Q458,36 458,36 Q459,35 462,35 Q464,35 464,34 Q464,34 462,34 Q459,34 458,34 Q458,33 458,30 Q458,27 458,26 Q457,26 457,24 Q457,23 456,22 Q456,22 456,22 T456,21"/>
    <path d="M584,1 Q582,1 582,2 Q581,2 580,2 Q579,2 578,2 Q578,3 578,3 Q577,3 576,4 Q576,4 574,2 Q572,0 572,0 Q571,0 571,0 Q571,1 573,3 Q575,5 575,6 Q575,6 574,6 Q574,7 570,7 Q567,7 567,8 Q567,8 570,8 Q572,8 572,8 Q573,9 572,10 Q572,10 572,12 Q572,13 572,14 Q571,14 570,12 Q568,11 568,11 Q567,11 567,12 Q567,12 568,14 Q570,15 570,16 Q570,17 570,18 Q569,18 569,18 Q569,19 568,20 Q568,20 568,20 Q568,21 568,21 Q569,21 570,20 Q570,20 570,20 Q570,19 570,18 Q571,18 571,17 Q571,16 572,15 Q573,14 573,12 Q573,11 574,10 Q574,10 574,10 Q574,9 575,8 Q576,7 576,6 Q576,6 577,5 Q578,4 578,4 Q579,4 580,4 Q580,3 581,3 Q582,3 582,2 Q583,2 584,2 T584,2"/>
    <path d="M542,0 Q538,0 538,0 Q537,1 536,1 Q536,1 536,2 Q535,2 534,2 Q534,2 533,3 Q532,4 532,5 Q532,6 532,6 Q531,7 531,10 Q531,12 532,12 Q532,13 532,16 Q532,19 532,20 Q533,20 533,20 Q533,21 534,22 Q534,22 534,22 Q534,23 535,24 Q536,25 536,26 Q536,27 536,28 Q537,28 537,29 Q537,30 538,31 Q539,32 539,32 Q539,33 541,35 Q543,37 544,37 Q545,37 546,38 Q546,38 547,38 Q548,38 548,38 Q549,39 550,39 Q551,39 552,40 Q554,42 555,42 Q556,42 556,42 Q557,43 558,43 Q559,43 560,44 Q560,44 561,44 Q562,44 562,44 Q563,45 564,45 Q564,45 564,46 Q565,46 567,46 Q569,46 570,48 Q572,49 573,49 Q574,49 576,50 Q577,52 577,52 Q577,53 578,54 Q578,54 578,54 Q578,55 579,56 Q580,57 580,60 Q580,62 580,62 Q581,63 581,64 Q581,64 582,64 Q582,65 582,68 Q582,72 582,72 Q581,73 581,74 Q581,75 580,76 Q580,76 580,76 Q580,77 579,78 Q578,79 578,79 Q577,79 576,78 Q574,76 574,76 Q573,76 573,76 Q573,77 574,78 Q576,80 576,80 Q576,81 576,82 Q575,82 575,82 Q575,83 574,84 Q574,84 574,84 Q573,84 570,82 Q568,79 568,79 Q567,79 567,80 Q567,80 570,82 Q572,85 571,86 Q570,87 569,87 Q568,87 567,88 Q566,89 566,89 Q565,89 564,90 Q564,90 564,90 Q563,90 562,90 Q562,91 562,91 Q561,91 560,92 Q560,92 560,92 Q559,92 558,92 Q558,93 556,93 Q554,93 554,94 Q553,94 550,94 Q548,94 548,94 Q547,93 546,93 Q546,93 544,92 Q543,90 542,90 Q542,90 542,90 Q541,89 541,88 Q541,88 540,86 Q538,85 540,83 Q542,81 542,81 Q543,81 544,80 Q544,80 546,80 Q547,80 547,80 Q547,79 545,79 Q543,79 542,80 Q542,80 542,80 Q541,80 539,82 Q537,84 534,84 Q532,84 532,84 Q531,83 531,78 Q531,72 532,72 Q532,71 532,70 Q532,70 532,70 Q531,70 530,70 Q530,71 530,78 Q530,84 529,85 Q528,86 528,86 Q528,87 528,88 Q527,88 527,90 Q527,92 526,92 Q526,93 526,96 Q526,98 526,98 Q525,99 523,97 Q521,95 520,95 Q520,95 520,96 Q520,96 524,100 Q529,105 530,105 Q530,105 530,106 Q531,106 532,106 Q534,106 534,106 Q534,105 533,105 Q532,105 532,104 Q531,104 530,104 Q530,104 528,102 Q526,100 526,100 Q527,99 527,96 Q527,94 528,94 Q528,93 528,91 Q528,89 528,88 Q529,88 529,88 Q529,87 530,86 Q531,85 534,85 Q536,85 538,87 Q540,89 540,90 Q540,90 540,90 Q541,91 542,91 Q542,91 544,92 Q545,94 546,94 Q546,94 546,94 Q547,95 550,95 Q554,95 554,94 Q555,94 557,94 Q559,94 560,94 Q560,93 560,93 Q561,93 562,92 Q562,92 562,92 Q563,92 564,92 Q564,91 564,91 Q565,91 566,90 Q566,90 566,90 Q567,90 568,89 Q569,88 570,88 Q571,88 572,86 Q574,85 574,85 Q575,85 576,84 Q576,84 576,84 Q576,83 576,82 Q577,82 577,82 Q577,81 578,80 Q578,80 578,80 Q579,80 580,79 Q581,78 581,78 Q581,77 582,76 Q582,76 582,75 Q582,74 582,74 Q583,73 583,68 Q583,64 582,64 Q582,63 582,62 Q582,62 582,62 Q581,61 581,58 Q581,56 580,55 Q579,54 579,54 Q579,53 578,52 Q578,52 578,52 Q578,51 576,50 Q575,48 574,48 Q573,48 572,46 Q570,45 568,45 Q566,45 566,44 Q565,44 564,44 Q564,44 564,44 Q563,43 562,43 Q561,43 560,42 Q560,42 559,42 Q558,42 558,42 Q557,41 556,41 Q555,41 554,40 Q552,38 551,38 Q550,38 550,38 Q549,37 548,37 Q547,37 546,36 Q546,36 545,36 Q544,36 542,34 Q540,32 540,32 Q540,31 539,30 Q538,29 538,28 Q538,27 538,26 Q537,26 537,25 Q537,24 536,23 Q535,22 535,22 Q535,21 534,20 Q534,20 534,20 Q534,19 534,18 Q533,18 533,15 Q533,12 532,12 Q532,11 532,10 Q532,8 532,8 Q533,7 533,6 Q533,5 534,4 Q535,3 536,3 Q536,3 536,2 Q537,2 538,2 Q538,2 538,2 Q539,1 540,1 T542,1"/>
    <path d="M348,0 Q345,0 342,2 Q340,4 338,12 Q335,21 332,20 Q330,19 332,22 Q333,25 332,28 Q330,30 328,29 Q327,28 328,30 Q330,32 326,37 Q323,42 320,49 Q317,56 313,56 Q309,55 312,57 Q315,59 310,70 Q305,81 305,84 Q305,86 303,86 Q301,86 302,89 Q302,92 300,95 Q298,98 296,106 Q294,114 292,116 Q291,117 275,110 Q259,102 238,102 Q217,101 214,88 Q211,75 206,44 Q202,12 200,7 Q197,2 199,8 Q201,13 206,44 Q210,76 213,88 Q216,101 207,102 Q198,103 185,108 Q172,113 168,115 Q165,117 158,124 Q150,132 136,117 Q121,102 98,84 Q75,67 56,58 Q38,48 34,45 Q31,42 30,42 Q28,42 32,46 Q37,49 56,58 Q74,68 92,82 Q111,95 130,114 Q149,133 146,137 Q143,141 138,156 Q133,172 132,191 Q132,210 124,210 Q117,211 106,214 Q96,218 78,222 Q61,225 50,226 Q38,228 30,228 Q23,227 24,228 Q24,229 32,229 Q39,229 50,228 Q62,226 80,222 Q97,219 108,216 Q118,212 126,212 Q133,211 135,220 Q137,229 139,233 Q141,237 145,242 Q149,247 153,250 Q157,253 158,255 Q159,257 158,260 Q157,264 148,276 Q139,287 132,297 Q126,307 123,307 Q120,307 122,308 Q125,308 126,309 Q126,310 120,320 Q114,329 110,337 Q106,345 106,347 Q106,349 101,356 Q96,362 102,356 Q107,350 108,348 Q108,345 110,346 Q112,347 110,345 Q109,343 112,336 Q115,330 118,326 Q122,321 122,318 Q123,316 132,302 Q140,288 150,274 Q160,261 173,266 Q186,271 188,273 Q191,275 200,278 Q209,280 210,282 Q212,283 210,286 Q207,289 200,289 Q192,289 190,288 Q188,287 190,288 Q191,290 200,290 Q208,290 210,287 Q213,284 226,284 Q240,285 242,284 Q245,282 251,282 Q257,281 258,280 Q259,279 260,279 Q262,279 265,282 Q268,284 266,281 Q264,278 272,274 Q281,271 291,262 Q301,253 305,246 Q309,240 352,270 Q394,301 404,310 Q413,319 414,318 Q415,318 405,309 Q395,300 368,281 Q340,262 326,251 Q313,240 320,227 Q327,214 328,209 Q329,204 330,202 Q332,201 332,186 Q333,171 340,170 Q346,170 350,168 Q355,167 386,165 Q416,163 418,166 Q420,169 420,166 Q420,163 431,162 Q442,162 443,161 Q444,160 453,159 Q462,158 459,158 Q456,157 454,158 Q453,159 448,159 Q443,159 442,160 Q441,161 397,164 Q353,167 351,165 Q349,163 349,166 Q349,168 342,169 Q334,170 333,169 Q332,168 332,162 Q331,155 328,150 Q326,145 318,138 Q310,130 302,124 Q293,118 296,108 Q299,99 302,99 Q304,99 302,98 Q301,96 303,92 Q305,88 308,88 Q310,88 308,87 Q306,86 306,84 Q306,82 310,76 Q313,69 314,66 Q314,63 318,64 Q321,64 318,62 Q316,59 324,43 Q333,27 334,26 Q335,25 337,26 Q339,27 337,25 Q335,23 338,14 T341,5"/>
  </g>
  
  <!-- Líneas horizontales: Polo S y Ecuador -->
  <g id="paralelos" stroke="#1F2A12" stroke-width="4" stroke-linecap="round">
    <line x1="0" y1="481" x2="1220" y2="481"/>
    <line x1="0" y1="1110" x2="1220" y2="1110"/>
  </g>
  
  <!-- Texto manuscrito: coordenadas y Ecuador (filled) -->
  <g id="texto-manuscrito" fill="#1F2A12" stroke="none" fill-rule="evenodd">
    <path d="M388,556 L387,556 L386,557 L385,557 L385,559 L384,560 L384,561 L383,562 L381,562 L381,565 L382,566 L382,571 L381,572 L381,576 L380,577 L382,579 L383,579 L385,577 L385,576 L387,574 L388,574 L388,569 L389,568 L389,567 L390,566 L390,565 L391,564 L391,560 L390,559 L390,558 Z"/>
    <path d="M204,557 L204,558 L205,559 L205,563 L207,566 L207,568 L208,569 L208,570 L210,573 L210,575 L211,576 L211,577 L210,578 L211,578 L212,579 L212,581 L211,582 L212,583 L212,584 L211,585 L212,585 L213,584 L214,584 L215,585 L215,587 L216,588 L216,590 L217,591 L217,593 L218,594 L220,592 L223,591 L223,588 L224,587 L225,584 L227,582 L227,581 L228,580 L231,579 L231,577 L234,575 L236,575 L238,578 L238,580 L237,581 L236,584 L234,586 L234,587 L236,589 L244,589 L246,591 L248,591 L250,589 L251,589 L249,587 L247,581 L251,577 L252,577 L252,573 L254,571 L256,571 L256,570 L257,569 L257,560 L256,559 L253,559 L251,561 L249,566 L247,568 L247,569 L243,574 L242,574 L241,573 L242,570 L241,570 L239,568 L239,560 L238,560 L235,558 L234,559 L233,559 L229,564 L229,566 L228,567 L228,569 L225,572 L225,574 L224,575 L224,576 L222,578 L220,578 L218,576 L218,573 L217,572 L217,571 L216,570 L216,568 L215,567 L215,563 L214,562 L214,561 L215,560 L213,560 L211,558 L211,556 L208,556 L207,555 L206,555 Z"/>
    <path d="M367,553 L358,553 L357,554 L355,554 L354,555 L353,555 L352,556 L350,556 L348,558 L347,558 L344,561 L344,566 L346,568 L347,568 L349,570 L349,571 L351,573 L351,574 L353,576 L355,576 L356,577 L356,578 L355,579 L355,580 L353,582 L353,584 L351,586 L350,586 L351,586 L352,587 L352,588 L351,589 L351,590 L348,593 L348,594 L349,595 L349,599 L348,600 L354,600 L356,598 L356,597 L357,596 L357,595 L358,594 L359,594 L360,593 L360,590 L361,589 L361,586 L362,585 L362,583 L363,582 L365,582 L365,577 L366,576 L366,571 L367,570 L367,569 L369,567 L369,566 L368,565 L368,561 L366,559 L366,558 L367,557 Z"/>
    <path d="M262,568 L262,569 L264,571 L265,571 L266,572 L268,572 L269,573 L270,572 L270,571 L271,570 L272,570 L274,572 L275,572 L277,575 L277,579 L275,581 L274,581 L273,582 L269,582 L268,581 L267,581 L267,582 L266,583 L266,588 L267,589 L272,589 L273,590 L274,589 L278,589 L278,588 L280,586 L281,586 L282,585 L282,584 L283,583 L283,580 L284,579 L284,576 L283,575 L283,572 L284,571 L286,571 L288,573 L288,575 L291,577 L291,579 L293,581 L293,582 L297,587 L299,587 L300,588 L302,588 L303,589 L304,589 L305,588 L309,588 L310,587 L313,587 L315,585 L315,584 L316,583 L315,582 L315,581 L316,580 L316,577 L315,576 L315,573 L313,573 L312,572 L311,573 L310,573 L307,570 L305,570 L304,569 L303,569 L302,570 L299,571 L298,572 L298,575 L297,576 L296,576 L293,571 L293,566 L294,565 L294,564 L298,560 L299,560 L304,557 L306,557 L307,556 L308,556 L308,555 L306,553 L302,553 L301,554 L297,554 L292,558 L288,558 L285,555 L283,555 L279,551 L276,550 L275,551 L274,551 L274,552 L271,555 L270,555 L270,557 L269,558 L269,559 L264,564 L264,566 Z"/>
    <path d="M330,546 L329,547 L325,547 L324,548 L323,548 L323,549 L321,551 L320,551 L319,552 L318,552 L318,559 L319,560 L319,561 L321,563 L321,565 L323,567 L332,567 L332,566 L336,562 L336,561 L337,560 L337,554 L334,551 L333,551 L332,550 L332,548 Z"/>
    <path d="M239,534 L237,534 L236,535 L236,536 L235,537 L233,537 L233,538 L234,539 L234,541 L233,542 L233,543 L234,544 L234,546 L235,546 L236,547 L237,547 L238,546 L241,546 L241,542 L243,540 L243,539 L241,537 L241,536 Z"/>
    <path d="M385,508 L381,508 L380,509 L380,514 L379,515 L378,515 L378,516 L379,517 L379,518 L378,519 L378,521 L379,522 L379,526 L378,527 L378,530 L376,532 L376,534 L377,535 L377,536 L376,537 L376,541 L377,542 L377,544 L380,544 L381,543 L383,543 L383,537 L384,536 L384,533 L385,532 L385,531 L386,530 L386,527 L387,526 L387,523 L386,522 L386,515 L387,514 L387,510 Z"/>
    <path d="M323,508 L322,509 L321,509 L320,508 L315,508 L314,509 L313,509 L312,510 L311,510 L308,513 L308,514 L307,515 L307,517 L306,518 L306,519 L305,520 L304,520 L304,523 L305,524 L305,526 L306,527 L307,527 L308,528 L309,528 L310,529 L312,529 L313,530 L314,530 L316,532 L319,532 L320,531 L321,531 L322,530 L323,530 L324,529 L324,527 L329,522 L329,521 L330,520 L330,519 L329,518 L329,517 L327,515 L327,513 L325,511 L325,510 L324,510 L323,509 Z"/>
    <path d="M411,507 L410,507 L409,506 L406,506 L405,507 L405,510 L404,511 L403,511 L401,513 L399,513 L400,513 L401,514 L401,516 L399,518 L399,519 L398,520 L398,521 L397,522 L397,523 L395,525 L394,525 L394,527 L395,528 L396,528 L397,527 L398,527 L399,526 L402,526 L404,524 L404,522 L410,516 L410,515 L412,513 L412,511 L413,510 L413,509 Z"/>
    <path d="M212,506 L211,507 L210,507 L207,510 L207,512 L206,513 L207,514 L207,517 L208,518 L208,521 L209,521 L212,524 L213,524 L215,526 L216,526 L219,528 L219,529 L221,532 L221,536 L219,538 L218,538 L217,539 L213,539 L210,537 L208,537 L205,534 L205,532 L204,531 L203,531 L202,530 L202,529 L198,529 L197,528 L196,528 L195,529 L195,530 L194,531 L194,533 L196,535 L197,535 L198,536 L198,537 L199,538 L199,539 L200,539 L201,540 L201,541 L203,543 L204,543 L205,544 L207,544 L208,545 L211,545 L212,546 L219,546 L219,545 L220,544 L221,544 L222,543 L223,543 L226,540 L226,538 L227,537 L227,533 L226,532 L226,526 L223,523 L222,523 L221,522 L219,522 L215,518 L215,517 L213,515 L213,514 L215,512 L219,512 L220,513 L222,513 L224,515 L226,515 L227,514 L228,514 L228,510 L227,510 L225,508 L224,508 L222,506 Z"/>
    <path d="M249,508 L249,509 L247,511 L247,513 L245,517 L246,518 L249,518 L253,513 L256,513 L257,512 L258,512 L260,514 L262,513 L263,514 L263,517 L260,520 L256,521 L254,525 L255,527 L257,528 L262,528 L266,531 L265,535 L261,539 L257,538 L254,541 L255,547 L257,547 L259,549 L260,549 L262,547 L264,547 L265,545 L266,545 L270,541 L271,541 L274,535 L274,529 L275,528 L277,529 L278,528 L280,528 L281,529 L287,529 L289,531 L289,534 L290,535 L290,537 L289,538 L287,538 L289,540 L289,541 L287,542 L289,544 L289,547 L291,549 L294,549 L296,547 L297,545 L297,540 L298,539 L298,535 L299,534 L299,532 L302,529 L303,529 L303,528 L302,528 L300,525 L300,519 L302,517 L302,516 L300,514 L300,512 L298,511 L294,511 L293,518 L291,522 L285,519 L285,516 L288,513 L289,513 L290,510 L292,508 L292,505 L288,503 L286,505 L285,508 L283,510 L282,510 L280,513 L276,515 L276,516 L274,518 L274,524 L273,525 L274,528 L273,529 L272,529 L270,527 L270,526 L269,526 L267,524 L268,520 L270,519 L271,517 L271,515 L270,514 L271,512 L270,512 L268,510 L267,505 L266,505 L265,503 L263,504 L256,504 Z"/>
    <path d="M356,500 L353,502 L353,503 L352,504 L352,505 L348,509 L348,510 L343,515 L340,515 L339,516 L339,518 L337,520 L337,527 L340,527 L341,528 L345,528 L346,527 L347,527 L348,528 L350,528 L351,529 L352,529 L353,530 L354,530 L357,533 L357,535 L355,538 L356,539 L356,543 L357,544 L357,545 L356,546 L358,548 L359,548 L362,550 L362,548 L364,546 L365,546 L365,545 L366,544 L365,543 L365,539 L367,537 L367,536 L366,535 L366,534 L367,533 L367,531 L369,528 L369,527 L368,526 L368,521 L370,519 L370,517 L369,516 L369,514 L365,510 L364,511 L363,511 L363,513 L362,514 L362,517 L360,519 L361,520 L361,521 L360,522 L356,522 L355,521 L354,521 L353,522 L350,522 L349,521 L349,520 L355,514 L355,513 L356,512 L357,512 L357,510 L358,509 L359,509 L359,507 L360,506 L360,503 L358,501 L357,501 Z"/>
    <path d="M453,487 L434,487 L437,487 L441,490 L440,506 L438,507 L440,509 L440,510 L436,517 L437,521 L435,524 L436,525 L435,533 L436,534 L436,536 L442,541 L442,543 L441,544 L439,544 L439,545 L437,546 L438,548 L437,552 L436,553 L437,555 L437,558 L434,561 L432,561 L427,566 L424,566 L423,568 L422,568 L418,572 L414,574 L411,577 L411,578 L408,581 L408,584 L406,586 L406,587 L404,589 L403,589 L404,590 L403,593 L397,600 L411,600 L414,594 L414,592 L417,588 L417,586 L426,577 L432,574 L435,571 L437,571 L438,570 L438,569 L445,561 L443,558 L443,556 L445,555 L446,552 L449,549 L456,547 L457,545 L457,541 L455,537 L454,537 L451,534 L449,529 L447,528 L447,525 L448,524 L448,519 L449,518 L449,512 L451,511 L449,507 L449,500 L450,499 L450,496 L449,495 L449,490 L451,487 Z"/>
  </g>
</svg>
